<svg id="visual" viewBox="0 0 960 540" width="960" height="540" xmlns="http://www.w3.org/2000/svg" xmlns:xlink="http://www.w3.org/1999/xlink" version="1.1"><rect x="0" y="0" width="960" height="540" fill="#050816"></rect><path d="M0 328L137 351L274 332L411 313L549 356L686 339L823 349L960 327L960 541L823 541L686 541L549 541L411 541L274 541L137 541L0 541Z" fill="#aaa6c3"></path><path d="M0 368L137 418L274 382L411 395L549 415L686 354L823 379L960 420L960 541L823 541L686 541L549 541L411 541L274 541L137 541L0 541Z" fill="#817c9c"></path><path d="M0 416L137 432L274 407L411 397L549 401L686 410L823 431L960 403L960 541L823 541L686 541L549 541L411 541L274 541L137 541L0 541Z" fill="#5b5576"></path><path d="M0 482L137 437L274 472L411 479L549 436L686 481L823 444L960 476L960 541L823 541L686 541L549 541L411 541L274 541L137 541L0 541Z" fill="#373152"></path><path d="M0 501L137 489L274 490L411 478L549 472L686 507L823 472L960 486L960 541L823 541L686 541L549 541L411 541L274 541L137 541L0 541Z" fill="#151030"></path></svg>