<svg xmlns="http://www.w3.org/2000/svg" version="1.1" xmlns:xlink="http://www.w3.org/1999/xlink" xmlns:svgjs="http://svgjs.dev/svgjs" width="2000" height="2250" viewBox="0 0 2000 2250"><g transform="matrix(1,0,0,1,0,0)"><svg viewBox="0 0 320 360" data-background-color="#000000" preserveAspectRatio="xMidYMid meet" height="2250" width="2000" xmlns="http://www.w3.org/2000/svg" xmlns:xlink="http://www.w3.org/1999/xlink"><g id="tight-bounds" transform="matrix(1,0,0,1,0,0)"><svg viewBox="0 0 320 360" height="360" width="320"><rect width="320" height="360" fill="url(#151db747-6a20-4638-bd83-b29ca9b9eda9)" mask="url(#829f69d6-3df9-4e0e-818c-81cf959c73c5)" data-fill-palette-color="tertiary"></rect><g><svg></svg></g><g><svg viewBox="0 0 320 360" height="360" width="320"><g><path transform="translate(-25.80645,-5.80645) scale(10.32258,10.32258)" d="M18 33.5c8.55 0 15.5-6.95 15.5-15.5 0-8.55-6.95-15.5-15.5-15.5-8.55 0-15.5 6.95-15.5 15.5 0 8.55 6.95 15.5 15.5 15.5zM18.5 32.47v-1c7.04-0.26 12.71-5.93 12.97-12.97h1c-0.26 7.6-6.37 13.71-13.97 13.97zM18.5 3.53c7.6 0.26 13.71 6.37 13.97 13.97h-1c-0.26-7.04-5.93-12.71-12.97-12.97zM30.5 18c0 6.89-5.61 12.5-12.5 12.5-6.89 0-12.5-5.61-12.5-12.5 0-6.89 5.61-12.5 12.5-12.5 6.89 0 12.5 5.61 12.5 12.5zM17.5 3.53v1c-7.04 0.26-12.71 5.93-12.97 12.97h-1c0.26-7.6 6.37-13.71 13.97-13.97zM4.53 18.5c0.26 7.04 5.93 12.71 12.97 12.97v1c-7.6-0.26-13.71-6.37-13.97-13.97z" fill="url(#151db747-6a20-4638-bd83-b29ca9b9eda9)" fill-rule="nonzero" stroke="none" stroke-width="1" stroke-linecap="butt" stroke-linejoin="miter" stroke-miterlimit="10" stroke-dasharray="" stroke-dashoffset="0" font-family="none" font-weight="none" font-size="none" text-anchor="none" style="mix-blend-mode: normal" data-fill-palette-color="tertiary"></path></g><g transform="matrix(1,0,0,1,123.72489514678514,90)"><svg viewBox="0 0 72.55020970642973 180" height="180" width="72.55020970642973"><g><svg viewBox="0 0 170.78227762803232 423.7177273151483" height="180" width="72.55020970642973"><g></g><g></g><g transform="matrix(1,0,0,1,0.4248315363881261,243.7177273151483)"><svg viewBox="0 0 169.93261455525607 180" height="180" width="169.93261455525607"><g id="textblocktransform"><svg viewBox="0 0 169.93261455525607 180" height="180" width="169.93261455525607" id="textblock"><g><svg viewBox="0 0 169.93261455525607 180" height="180" width="169.93261455525607"><g transform="matrix(1,0,0,1,0,0)"><svg width="169.93261455525607" viewBox="1.49 -35.79 34.199999999999996 36.23" height="180" data-palette-color="url(#68d3085d-a0d1-42c6-b706-2a347b46b3a0)"></svg></g></svg></g></svg></g></svg></g><g transform="matrix(1,0,0,1,32.88196091644203,0)"><svg viewBox="0 0 105.01835579514825 105.01835579514825" height="105.01835579514825" width="105.01835579514825"><g><svg xmlns="http://www.w3.org/2000/svg" xmlns:xlink="http://www.w3.org/1999/xlink" version="1.1" x="0" y="0" viewBox="12 12 256 256" enable-background="new 0 0 280 280" xml:space="preserve" height="105.01835579514825" width="105.01835579514825" class="icon-icon-0" data-fill-palette-color="accent" id="icon-0"></svg></g></svg></g><g></g></svg></g></svg></g></svg></g><defs></defs><mask id="6644faaa-16f0-4b04-b930-29f5e184b5b4"><g id="SvgjsG1100"><svg viewBox="0 0 320 360" height="360" width="320"><g><svg></svg></g><g><svg viewBox="0 0 320 360" height="360" width="320"><g><path transform="translate(-25.80645,-5.80645) scale(10.32258,10.32258)" d="M18 33.5c8.55 0 15.5-6.95 15.5-15.5 0-8.55-6.95-15.5-15.5-15.5-8.55 0-15.5 6.95-15.5 15.5 0 8.55 6.95 15.5 15.5 15.5zM18.5 32.47v-1c7.04-0.26 12.71-5.93 12.97-12.97h1c-0.26 7.6-6.37 13.71-13.97 13.97zM18.5 3.53c7.6 0.26 13.71 6.37 13.97 13.97h-1c-0.26-7.04-5.93-12.71-12.97-12.97zM30.5 18c0 6.89-5.61 12.5-12.5 12.5-6.89 0-12.5-5.61-12.5-12.5 0-6.89 5.61-12.5 12.5-12.5 6.89 0 12.5 5.61 12.5 12.5zM17.5 3.53v1c-7.04 0.26-12.71 5.93-12.97 12.97h-1c0.26-7.6 6.37-13.71 13.97-13.97zM4.53 18.5c0.26 7.04 5.93 12.71 12.97 12.97v1c-7.6-0.26-13.71-6.37-13.97-13.97z" fill="black" fill-rule="nonzero" stroke="none" stroke-width="1" stroke-linecap="butt" stroke-linejoin="miter" stroke-miterlimit="10" stroke-dasharray="" stroke-dashoffset="0" font-family="none" font-weight="none" font-size="none" text-anchor="none" style="mix-blend-mode: normal"></path></g><g transform="matrix(1,0,0,1,123.72489514678514,90)"><svg viewBox="0 0 72.55020970642973 180" height="180" width="72.55020970642973"><g><svg viewBox="0 0 170.78227762803232 423.7177273151483" height="180" width="72.55020970642973"><g><rect width="170.78227762803232" height="16.232585760000003" x="0" y="147.51203579514825" fill="white" opacity="1" stroke-width="0" stroke="transparent" fill-opacity="1" class="rect-qz-0" rx="1%" id="SvgjsRect1099" data-palette-color="url(#68d3085d-a0d1-42c6-b706-2a347b46b3a0)"></rect></g><g><rect width="170.78227762803232" height="16.232585760000003" x="0" y="184.99146155514828" fill="white" opacity="1" stroke-width="0" stroke="transparent" fill-opacity="1" class="rect-qz-1" rx="1%" id="SvgjsRect1098" data-palette-color="url(#68d3085d-a0d1-42c6-b706-2a347b46b3a0)"></rect></g><g transform="matrix(1,0,0,1,0.4248315363881261,243.7177273151483)"><svg viewBox="0 0 169.93261455525607 180" height="180" width="169.93261455525607"><g id="SvgjsG1097"><svg viewBox="0 0 169.93261455525607 180" height="180" width="169.93261455525607" id="SvgjsSvg1096"><g><svg viewBox="0 0 169.93261455525607 180" height="180" width="169.93261455525607"><g transform="matrix(1,0,0,1,0,0)"><svg width="169.93261455525607" viewBox="1.49 -35.79 34.199999999999996 36.23" height="180" data-palette-color="url(#68d3085d-a0d1-42c6-b706-2a347b46b3a0)"><path d="M1.49-0.49L16.41-33.84Q17.24-34.35 18.31-35.79L18.31-35.79 18.55-35.79 32.01-3.39Q32.91-1.22 35.69-0.34L35.69-0.34 35.69 0.1Q34.11-0.07 31.88 0.04 29.66 0.15 27.95 0.44L27.95 0.44 27.76 0.2Q28.25-0.44 27.99-1.93 27.73-3.42 26.49-6.45L26.49-6.45 22.46-16.55Q15.28-16.67 10.6-16.5L10.6-16.5 4.96-3.39Q4.44-2.27 5.33-1.51 6.23-0.76 8.84-0.24L8.84-0.24 8.74 0.2Q4.49-0.12 1.81 0L1.81 0Q1.66-0.15 1.49-0.49L1.49-0.49ZM16.75-30.69L11.25-17.94Q14.79-17.85 21.85-17.94L21.85-17.94 16.75-30.69Z" opacity="1" transform="matrix(1,0,0,1,0,0)" fill="white" class="wordmark-text-0" id="SvgjsPath1095"></path></svg></g></svg></g></svg></g></svg></g><g transform="matrix(1,0,0,1,32.88196091644203,0)"><svg viewBox="0 0 105.01835579514825 105.01835579514825" height="105.01835579514825" width="105.01835579514825"><g><svg xmlns="http://www.w3.org/2000/svg" xmlns:xlink="http://www.w3.org/1999/xlink" version="1.1" x="0" y="0" viewBox="12 12 256 256" enable-background="new 0 0 280 280" xml:space="preserve" height="105.01835579514825" width="105.01835579514825" class="icon-icon-0" data-fill-palette-color="accent" id="SvgjsSvg1094"><g fill="black"><path d="M140 12C69.42 12 12 69.422 12 140.002 12 210.58 69.42 268 140 268c70.579 0 128-57.42 128-127.998C268 69.422 210.579 12 140 12zM140 47.972c20.581 0 39.399 6.068 53.91 16.095l-9.112 8.773-1.193 1.151c-3.657-2.026-7.473-3.758-11.377-5.188-5.162-1.88-10.492-3.271-15.897-4.139-4.318-0.674-8.674-1.02-13.029-1.074-1.024-1.674-2.119-3.391-3.301-5.155-1.183 1.765-2.276 3.481-3.301 5.156-4.355 0.056-8.713 0.401-13.032 1.076-5.404 0.866-10.734 2.259-15.896 4.14-3.904 1.431-7.717 3.162-11.372 5.188L95.2 72.841l-9.109-8.775C100.6 54.039 119.417 47.972 140 47.972zM171.991 89.816c-0.119 0.615-0.188 1.358-0.203 1.95l-0.077 1.738-0.155 3.479-0.523 11.81h-62.065l-0.524-11.81-0.153-3.479-0.077-1.738c-0.017-0.592-0.084-1.334-0.203-1.95-0.494-2.545-1.479-4.819-2.845-6.92-0.349-0.521-0.725-1.028-1.15-1.512-0.466-0.537-0.87-0.884-1.291-1.299l-2.507-2.414-2.51-2.418c3.373-1.994 6.904-3.739 10.54-5.216 5.014-2.025 10.23-3.578 15.555-4.63 4.213-0.858 8.493-1.403 12.8-1.661-1.125 1.841-2.166 3.627-3.133 5.35-4.836 0.684-9.631 1.506-14.534 2.384 4.44 1.928 8.287 4.207 11.696 6.509-0.365 3.324-0.758 6.563-1.443 9.841 3.603-1.548 7.148-3.091 10.813-4.646 3.665 1.555 7.209 3.098 10.814 4.646-0.688-3.278-1.083-6.517-1.446-9.841 3.411-2.302 7.26-4.581 11.698-6.509-4.901-0.878-9.694-1.7-14.534-2.384-0.966-1.723-2.008-3.509-3.133-5.35 4.305 0.26 8.585 0.805 12.797 1.663 5.323 1.052 10.54 2.604 15.554 4.632 3.636 1.476 7.165 3.222 10.539 5.216l-2.505 2.413-2.508 2.415c-0.42 0.414-0.824 0.761-1.291 1.299-0.426 0.483-0.801 0.991-1.15 1.512C173.472 84.997 172.485 87.271 171.991 89.816zM188.979 114.388c5.446 0 9.876 4.432 9.876 9.879v60.948c0 5.447-4.43 9.878-9.876 9.878H91.019c-5.446 0-9.877-4.431-9.877-9.878v-60.948c0-5.447 4.431-9.879 9.877-9.879H188.979zM54.479 131.101c-1.662 0.873-3.214 1.931-4.595 3.165-3.853 3.401-6.404 8.104-7.01 12.975 1.321-4.731 4.433-8.731 8.331-11.26 1.043-0.685 2.143-1.256 3.273-1.731v33.9c-1.133-0.475-2.232-1.048-3.273-1.729-3.9-2.53-7.012-6.53-8.332-11.262 0.605 4.871 3.156 9.574 7.01 12.976 1.383 1.229 2.934 2.291 4.596 3.166v3.056c-10.59-3.449-18.226-12.998-18.226-24.217 0-11.218 7.636-20.766 18.226-24.216V131.101zM56.953 187.51v-72.384c0-20.409 11.274-38.679 29.044-50.994l8.307 9.561 0.882 1.015c-5.525 3.196-10.677 7.065-15.185 11.661-7.755 7.919-13.484 18.113-15.401 29.252-0.484 2.769-0.733 5.599-0.749 8.401l-0.071 8.175-0.143 16.351-0.231 32.7-0.043 8.175-0.012 2.043c0 0.681-0.017 1.346 0.012 2.126 0.057 1.523 0.253 3.007 0.592 4.479 1.184 5.188 4.191 9.899 8.328 13.233C63.265 207.153 56.953 198.043 56.953 187.51zM188.395 253.147c-0.026-0.051-0.046-0.106-0.077-0.156l-0.042-0.065c-1.981-3.145-4.632-5.925-7.538-8.15-2.924-2.238-6.143-4.005-9.493-5.356-2.023-0.817-4.096-1.464-6.194-1.986-0.167 0.384-0.383 0.768-0.642 1.15 2.086 0.702 4.121 1.532 6.069 2.524 3.086 1.57 5.967 3.507 8.476 5.802 2.432 2.242 4.46 4.775 5.985 7.657-13.922 5.469-29.075 8.487-44.938 8.487-15.862 0-31.016-3.019-44.938-8.486 1.491-2.833 3.553-5.423 5.985-7.658 2.508-2.295 5.389-4.23 8.475-5.802 1.948-0.992 3.981-1.821 6.064-2.523-0.259-0.383-0.474-0.767-0.642-1.15-2.096 0.522-4.168 1.17-6.189 1.985-3.35 1.352-6.568 3.118-9.494 5.356-2.913 2.242-5.533 4.971-7.557 8.186-0.027 0.045-0.057 0.095-0.08 0.142-0.008 0.016-0.012 0.03-0.017 0.046-4.068-1.743-8.03-3.685-11.857-5.839 6.987-8.277 19.387-13.787 33.528-13.787h1.576c0.094-0.199 0.2-0.392 0.327-0.575-0.469-0.871-0.707-1.742-0.71-2.605 0-0.862 0.245-1.651 0.71-2.324-0.471-0.871-0.707-1.742-0.71-2.606 0-0.861 0.246-1.649 0.71-2.322-0.469-0.871-0.707-1.743-0.71-2.605 0-0.863 0.246-1.652 0.71-2.324-0.274-0.511-0.46-1.021-0.575-1.529l2.622 0.005c0.126 0.378 0.322 0.713 0.521 0.999 0.741 0.989 1.673 1.708 2.629 2.359 1.931 1.28 4.038 2.215 6.192 2.964 2.162 0.738 4.395 1.241 6.641 1.572 2.249 0.329 4.524 0.457 6.787 0.374 2.262 0.083 4.537-0.046 6.786-0.375 2.249-0.332 4.479-0.835 6.642-1.573 2.156-0.749 4.262-1.684 6.192-2.966 0.956-0.65 1.89-1.369 2.628-2.358 0.2-0.284 0.396-0.62 0.521-0.994l2.624-0.005c-0.114 0.508-0.3 1.018-0.576 1.529 0.466 0.67 0.71 1.459 0.71 2.322 0 0.861-0.238 1.734-0.71 2.607 0.466 0.672 0.71 1.459 0.71 2.32 0 0.863-0.238 1.735-0.71 2.608 0.466 0.673 0.71 1.461 0.71 2.322s-0.237 1.733-0.709 2.606c0.128 0.184 0.233 0.376 0.327 0.574h1.576c14.144 0 26.544 5.51 33.528 13.787C196.422 249.464 192.461 251.405 188.395 253.147zM151.116 219.135c-3.614 1.024-7.363 1.552-11.119 1.498-3.753 0.051-7.504-0.475-11.116-1.5-2.161-0.632-4.317-1.427-6.3-2.489l0.613 0.002c1.1 0.527 2.229 0.984 3.377 1.382 2.162 0.739 4.394 1.241 6.641 1.572 2.249 0.33 4.524 0.457 6.787 0.374 2.262 0.083 4.537-0.044 6.786-0.375s4.479-0.835 6.642-1.573c1.144-0.397 2.271-0.853 3.369-1.379l0.62-0.001C155.434 217.707 153.276 218.503 151.116 219.135zM159.368 217.231c0.337-0.01 0.768 0.124 0.602 0.35-1.443 1.942-9.746 4.964-12.1 4.403-0.271-0.064-0.03-0.444 0.236-0.653L159.368 217.231zM131.894 221.331c0.263 0.209 0.504 0.589 0.234 0.653-2.354 0.561-10.656-2.461-12.098-4.403-0.168-0.226 0.262-0.359 0.599-0.35L131.894 221.331zM203.4 208.672c-2.036 1.327-4.313 2.271-6.687 2.76-1.185 0.243-2.397 0.371-3.605 0.386l-4.057-0.004-16.351-0.028-81.75 0.031-4.055 0.004c-1.214-0.015-2.423-0.144-3.61-0.386-2.37-0.489-4.654-1.423-6.689-2.755-4.082-2.651-7.124-6.899-8.256-11.646-0.288-1.18-0.462-2.408-0.519-3.606-0.03-0.581-0.024-1.279-0.029-1.963l-0.011-2.043-0.043-8.175-0.232-32.7-0.143-16.351-0.071-8.175c-0.025-2.647 0.141-5.27 0.528-7.88 1.528-10.46 6.688-20.271 13.954-28.093 4.252-4.646 9.21-8.634 14.6-11.973l2.495 2.873 2.284 2.628c0.37 0.434 0.802 0.895 1.056 1.267 0.308 0.417 0.584 0.87 0.84 1.338 1.007 1.878 1.697 4.025 1.896 6.066 0.049 0.533 0.049 0.95 0.018 1.519l-0.076 1.738-0.154 3.479-0.525 11.81H91.019c-8.51 0-15.473 6.962-15.473 15.474v60.948c0 8.51 6.963 15.473 15.473 15.473h97.961c8.513 0 15.474-6.963 15.474-15.473v-60.948c0-8.512-6.961-15.474-15.474-15.474H175.79l-0.523-11.81-0.154-3.479-0.078-1.738c-0.031-0.568-0.029-0.985 0.02-1.519 0.198-2.041 0.891-4.188 1.896-6.066 0.256-0.469 0.533-0.922 0.838-1.339 0.256-0.372 0.687-0.833 1.056-1.267l2.285-2.627 2.492-2.868c5.388 3.337 10.346 7.325 14.597 11.972 7.268 7.817 12.426 17.63 13.953 28.088 0.188 1.304 0.342 2.611 0.417 3.926 0.055 0.661 0.071 1.303 0.097 1.949l0.018 2.003-0.072 8.175-0.143 16.351-0.23 32.7-0.044 8.176-0.01 2.043c-0.007 0.692 0 1.367-0.03 1.951-0.057 1.22-0.231 2.432-0.518 3.616C210.522 201.774 207.482 206.022 203.4 208.672zM223.047 187.51c0 10.52-6.298 19.619-15.296 23.777 4.123-3.335 7.121-8.04 8.302-13.218 0.339-1.468 0.537-2.968 0.591-4.47 0.029-0.778 0.012-1.468 0.012-2.137l-0.01-2.043-0.043-8.176-0.231-32.7-0.145-16.351-0.07-8.175-0.055-2.083c-0.04-0.716-0.072-1.436-0.142-2.132-0.119-1.404-0.318-2.801-0.552-4.188-0.965-5.551-2.872-10.909-5.511-15.84-2.654-4.925-6.016-9.438-9.896-13.413-4.507-4.595-9.658-8.463-15.183-11.658l0.878-1.012 8.307-9.56c17.769 12.315 29.044 30.585 29.044 50.993V187.51zM225.521 174.356V171.3c1.661-0.875 3.21-1.937 4.591-3.165 3.854-3.401 6.406-8.104 7.01-12.976-1.319 4.731-4.431 8.731-8.329 11.261-1.041 0.681-2.141 1.254-3.271 1.729v-33.9c1.129 0.476 2.229 1.047 3.27 1.73 3.9 2.529 7.01 6.528 8.331 11.261-0.604-4.87-3.156-9.574-7.01-12.975-1.379-1.234-2.93-2.292-4.591-3.165v-5.176c10.587 3.451 18.223 12.998 18.223 24.215C243.743 161.357 236.107 170.905 225.521 174.356z" fill="black"></path><path d="M161.602 233.817l-0.3-0.154-0.27 0.235c-2.764 2.426-6.34 3.907-9.918 4.953-3.612 1.025-7.361 1.553-11.117 1.5-3.753 0.05-7.504-0.476-11.116-1.501-3.576-1.047-7.152-2.526-9.916-4.954l-0.267-0.235-0.306 0.154c-0.547 0.275-1.214 0.827-1.284 1.649-0.068 0.776 0.299 1.395 0.643 1.887 0.74 0.989 1.672 1.707 2.628 2.358 1.931 1.281 4.038 2.216 6.192 2.964 2.162 0.739 4.395 1.241 6.641 1.572 2.249 0.33 4.524 0.457 6.787 0.374 2.262 0.083 4.537-0.044 6.786-0.375 2.247-0.33 4.479-0.835 6.64-1.573 2.156-0.748 4.264-1.683 6.194-2.964 0.956-0.651 1.89-1.37 2.628-2.359 0.346-0.49 0.707-1.115 0.643-1.873C162.812 234.628 162.15 234.1 161.602 233.817zM132.128 241.702c-2.354 0.561-10.658-2.463-12.098-4.404-0.168-0.223 0.262-0.358 0.599-0.35l11.265 4.1C132.154 241.257 132.396 241.637 132.128 241.702zM159.97 237.298c-1.443 1.941-9.746 4.965-12.098 4.404-0.271-0.065-0.029-0.445 0.234-0.654l11.266-4.1C159.706 236.939 160.136 237.075 159.97 237.298z" fill="black"></path><path d="M161.601 228.887l-0.301-0.153-0.268 0.236c-2.764 2.427-6.34 3.907-9.916 4.953-3.614 1.024-7.363 1.551-11.119 1.499-3.753 0.049-7.504-0.476-11.116-1.5-3.576-1.047-7.153-2.526-9.916-4.954l-0.267-0.235-0.305 0.152c-0.548 0.276-1.215 0.828-1.285 1.65-0.068 0.777 0.299 1.395 0.642 1.887 0.741 0.989 1.673 1.707 2.629 2.359 1.931 1.281 4.037 2.215 6.192 2.964 2.162 0.738 4.394 1.242 6.641 1.573 2.249 0.33 4.524 0.456 6.787 0.373 2.262 0.083 4.537-0.044 6.786-0.375s4.479-0.835 6.642-1.573c2.156-0.749 4.262-1.684 6.192-2.965 0.956-0.652 1.89-1.371 2.628-2.36 0.346-0.489 0.707-1.117 0.643-1.872C162.814 229.695 162.148 229.169 161.601 228.887zM132.128 236.774c-2.354 0.563-10.652-2.464-12.098-4.404-0.168-0.224 0.262-0.358 0.599-0.35l11.263 4.101C132.156 236.331 132.396 236.71 132.128 236.774zM159.97 232.37c-1.447 1.94-9.749 4.967-12.1 4.404-0.27-0.064-0.03-0.443 0.236-0.653l11.262-4.101C159.706 232.012 160.136 232.146 159.97 232.37z" fill="black"></path><path d="M161.602 223.958l-0.3-0.155-0.27 0.237c-2.764 2.427-6.34 3.907-9.916 4.953-3.614 1.023-7.363 1.551-11.119 1.498-3.753 0.049-7.504-0.475-11.116-1.499-3.576-1.047-7.153-2.526-9.916-4.954l-0.267-0.235-0.306 0.154c-0.547 0.275-1.214 0.826-1.284 1.649-0.068 0.776 0.299 1.395 0.642 1.887 0.741 0.988 1.673 1.707 2.629 2.358 1.931 1.281 4.038 2.216 6.192 2.964 2.162 0.738 4.394 1.241 6.641 1.572 2.249 0.329 4.524 0.457 6.787 0.375 2.262 0.082 4.537-0.046 6.786-0.375 2.247-0.332 4.479-0.837 6.642-1.574 2.156-0.748 4.262-1.683 6.192-2.965 0.956-0.65 1.89-1.37 2.628-2.358 0.346-0.491 0.707-1.116 0.643-1.874C162.812 224.769 162.15 224.241 161.602 223.958zM132.128 231.842c-2.355 0.563-10.656-2.46-12.098-4.402-0.168-0.225 0.262-0.358 0.599-0.351l11.263 4.101C132.154 231.399 132.396 231.778 132.128 231.842zM159.97 227.439c-1.443 1.942-9.745 4.965-12.1 4.402-0.27-0.063-0.027-0.442 0.236-0.652l11.266-4.101C159.706 227.081 160.136 227.215 159.97 227.439z" fill="black"></path><path d="M161.601 219.03l-0.301-0.153-0.268 0.235c-2.765 2.425-6.34 3.906-9.918 4.952-3.612 1.024-7.361 1.551-11.117 1.498-3.753 0.05-7.504-0.474-11.116-1.5-3.576-1.046-7.152-2.526-9.916-4.952l-0.266-0.234-0.304 0.152c-0.551 0.273-1.218 0.827-1.287 1.649-0.068 0.776 0.299 1.395 0.643 1.887 0.74 0.989 1.672 1.707 2.628 2.358 1.932 1.28 4.038 2.215 6.192 2.963 2.162 0.738 4.395 1.241 6.641 1.572 2.249 0.329 4.524 0.457 6.787 0.374 2.262 0.082 4.537-0.045 6.786-0.375 2.247-0.331 4.479-0.835 6.64-1.572 2.156-0.749 4.264-1.684 6.194-2.965 0.956-0.65 1.888-1.369 2.628-2.358 0.344-0.49 0.707-1.115 0.643-1.874C162.813 219.842 162.15 219.311 161.601 219.03zM132.128 226.914c-2.354 0.562-10.656-2.462-12.098-4.402-0.168-0.223 0.26-0.358 0.599-0.349l11.263 4.099C132.156 226.472 132.396 226.852 132.128 226.914zM159.97 222.512c-1.443 1.94-9.746 4.964-12.098 4.402-0.271-0.063-0.032-0.442 0.234-0.652l11.262-4.099C159.706 222.153 160.136 222.289 159.97 222.512z" fill="black"></path><path d="M84.232 124.267v60.948c0 3.742 3.044 6.786 6.786 6.786h97.961c3.741 0 6.784-3.044 6.784-6.786v-60.948c0-3.742-3.043-6.787-6.784-6.787H91.019C87.276 117.479 84.232 120.524 84.232 124.267zM171.243 144.323c8.058 0 14.59 6.53 14.59 14.586s-6.532 14.587-14.59 14.587c-8.059 0-14.588-6.531-14.588-14.587S163.185 144.323 171.243 144.323zM108.756 144.323c8.054 0 14.586 6.53 14.586 14.586s-6.532 14.587-14.586 14.587c-8.057 0-14.588-6.531-14.588-14.587S100.699 144.323 108.756 144.323z" fill="black"></path></g></svg></g></svg></g><g></g></svg></g></svg></g></svg></g><defs><mask></mask></defs></svg><rect width="320" height="360" fill="black" stroke="none" visibility="hidden"></rect></g></mask><linearGradient x1="0.054" x2="0.941" y1="0.5" y2="0.5" id="68d3085d-a0d1-42c6-b706-2a347b46b3a0"><stop stop-color="#9c7945" offset="0"></stop><stop stop-color="#faf3aa" offset="0.498"></stop><stop stop-color="#9c7945" offset="1"></stop></linearGradient><rect width="320" height="360" fill="url(#68d3085d-a0d1-42c6-b706-2a347b46b3a0)" mask="url(#6644faaa-16f0-4b04-b930-29f5e184b5b4)" data-fill-palette-color="primary"></rect><mask id="eeecbd8b-1abb-498c-a64c-2d816c592840"><g id="SvgjsG1123"><svg viewBox="0 0 320 360" height="360" width="320"><g><svg></svg></g><g><svg viewBox="0 0 320 360" height="360" width="320"><g><path transform="translate(-25.80645,-5.80645) scale(10.32258,10.32258)" d="M18 33.5c8.55 0 15.5-6.95 15.5-15.5 0-8.55-6.95-15.5-15.5-15.5-8.55 0-15.5 6.95-15.5 15.5 0 8.55 6.95 15.5 15.5 15.5zM18.5 32.47v-1c7.04-0.26 12.71-5.93 12.97-12.97h1c-0.26 7.6-6.37 13.71-13.97 13.97zM18.5 3.53c7.6 0.26 13.71 6.37 13.97 13.97h-1c-0.26-7.04-5.93-12.71-12.97-12.97zM30.5 18c0 6.89-5.61 12.5-12.5 12.5-6.89 0-12.5-5.61-12.5-12.5 0-6.89 5.61-12.5 12.5-12.5 6.89 0 12.5 5.61 12.5 12.5zM17.5 3.53v1c-7.04 0.26-12.71 5.93-12.97 12.97h-1c0.26-7.6 6.37-13.71 13.97-13.97zM4.53 18.5c0.26 7.04 5.93 12.71 12.97 12.97v1c-7.6-0.26-13.71-6.37-13.97-13.97z" fill="black" fill-rule="nonzero" stroke="none" stroke-width="1" stroke-linecap="butt" stroke-linejoin="miter" stroke-miterlimit="10" stroke-dasharray="" stroke-dashoffset="0" font-family="none" font-weight="none" font-size="none" text-anchor="none" style="mix-blend-mode: normal"></path></g><g transform="matrix(1,0,0,1,123.72489514678514,90)"><svg viewBox="0 0 72.55020970642973 180" height="180" width="72.55020970642973"><g><svg viewBox="0 0 170.78227762803232 423.7177273151483" height="180" width="72.55020970642973"><g></g><g></g><g transform="matrix(1,0,0,1,0.4248315363881261,243.7177273151483)"><svg viewBox="0 0 169.93261455525607 180" height="180" width="169.93261455525607"><g id="SvgjsG1122"><svg viewBox="0 0 169.93261455525607 180" height="180" width="169.93261455525607" id="SvgjsSvg1121"><g><svg viewBox="0 0 169.93261455525607 180" height="180" width="169.93261455525607"><g transform="matrix(1,0,0,1,0,0)"><svg width="169.93261455525607" viewBox="1.49 -35.79 34.199999999999996 36.23" height="180" data-palette-color="url(#68d3085d-a0d1-42c6-b706-2a347b46b3a0)"></svg></g></svg></g></svg></g></svg></g><g transform="matrix(1,0,0,1,32.88196091644203,0)"><svg viewBox="0 0 105.01835579514825 105.01835579514825" height="105.01835579514825" width="105.01835579514825"><g><svg xmlns="http://www.w3.org/2000/svg" xmlns:xlink="http://www.w3.org/1999/xlink" version="1.1" x="0" y="0" viewBox="12 12 256 256" enable-background="new 0 0 280 280" xml:space="preserve" height="105.01835579514825" width="105.01835579514825" class="icon-icon-0" data-fill-palette-color="accent" id="SvgjsSvg1120"><g fill="white"><path d="M140 12C69.42 12 12 69.422 12 140.002 12 210.58 69.42 268 140 268c70.579 0 128-57.42 128-127.998C268 69.422 210.579 12 140 12zM140 47.972c20.581 0 39.399 6.068 53.91 16.095l-9.112 8.773-1.193 1.151c-3.657-2.026-7.473-3.758-11.377-5.188-5.162-1.88-10.492-3.271-15.897-4.139-4.318-0.674-8.674-1.02-13.029-1.074-1.024-1.674-2.119-3.391-3.301-5.155-1.183 1.765-2.276 3.481-3.301 5.156-4.355 0.056-8.713 0.401-13.032 1.076-5.404 0.866-10.734 2.259-15.896 4.14-3.904 1.431-7.717 3.162-11.372 5.188L95.2 72.841l-9.109-8.775C100.6 54.039 119.417 47.972 140 47.972zM171.991 89.816c-0.119 0.615-0.188 1.358-0.203 1.95l-0.077 1.738-0.155 3.479-0.523 11.81h-62.065l-0.524-11.81-0.153-3.479-0.077-1.738c-0.017-0.592-0.084-1.334-0.203-1.95-0.494-2.545-1.479-4.819-2.845-6.92-0.349-0.521-0.725-1.028-1.15-1.512-0.466-0.537-0.87-0.884-1.291-1.299l-2.507-2.414-2.51-2.418c3.373-1.994 6.904-3.739 10.54-5.216 5.014-2.025 10.23-3.578 15.555-4.63 4.213-0.858 8.493-1.403 12.8-1.661-1.125 1.841-2.166 3.627-3.133 5.35-4.836 0.684-9.631 1.506-14.534 2.384 4.44 1.928 8.287 4.207 11.696 6.509-0.365 3.324-0.758 6.563-1.443 9.841 3.603-1.548 7.148-3.091 10.813-4.646 3.665 1.555 7.209 3.098 10.814 4.646-0.688-3.278-1.083-6.517-1.446-9.841 3.411-2.302 7.26-4.581 11.698-6.509-4.901-0.878-9.694-1.7-14.534-2.384-0.966-1.723-2.008-3.509-3.133-5.35 4.305 0.26 8.585 0.805 12.797 1.663 5.323 1.052 10.54 2.604 15.554 4.632 3.636 1.476 7.165 3.222 10.539 5.216l-2.505 2.413-2.508 2.415c-0.42 0.414-0.824 0.761-1.291 1.299-0.426 0.483-0.801 0.991-1.15 1.512C173.472 84.997 172.485 87.271 171.991 89.816zM188.979 114.388c5.446 0 9.876 4.432 9.876 9.879v60.948c0 5.447-4.43 9.878-9.876 9.878H91.019c-5.446 0-9.877-4.431-9.877-9.878v-60.948c0-5.447 4.431-9.879 9.877-9.879H188.979zM54.479 131.101c-1.662 0.873-3.214 1.931-4.595 3.165-3.853 3.401-6.404 8.104-7.01 12.975 1.321-4.731 4.433-8.731 8.331-11.26 1.043-0.685 2.143-1.256 3.273-1.731v33.9c-1.133-0.475-2.232-1.048-3.273-1.729-3.9-2.53-7.012-6.53-8.332-11.262 0.605 4.871 3.156 9.574 7.01 12.976 1.383 1.229 2.934 2.291 4.596 3.166v3.056c-10.59-3.449-18.226-12.998-18.226-24.217 0-11.218 7.636-20.766 18.226-24.216V131.101zM56.953 187.51v-72.384c0-20.409 11.274-38.679 29.044-50.994l8.307 9.561 0.882 1.015c-5.525 3.196-10.677 7.065-15.185 11.661-7.755 7.919-13.484 18.113-15.401 29.252-0.484 2.769-0.733 5.599-0.749 8.401l-0.071 8.175-0.143 16.351-0.231 32.7-0.043 8.175-0.012 2.043c0 0.681-0.017 1.346 0.012 2.126 0.057 1.523 0.253 3.007 0.592 4.479 1.184 5.188 4.191 9.899 8.328 13.233C63.265 207.153 56.953 198.043 56.953 187.51zM188.395 253.147c-0.026-0.051-0.046-0.106-0.077-0.156l-0.042-0.065c-1.981-3.145-4.632-5.925-7.538-8.15-2.924-2.238-6.143-4.005-9.493-5.356-2.023-0.817-4.096-1.464-6.194-1.986-0.167 0.384-0.383 0.768-0.642 1.15 2.086 0.702 4.121 1.532 6.069 2.524 3.086 1.57 5.967 3.507 8.476 5.802 2.432 2.242 4.46 4.775 5.985 7.657-13.922 5.469-29.075 8.487-44.938 8.487-15.862 0-31.016-3.019-44.938-8.486 1.491-2.833 3.553-5.423 5.985-7.658 2.508-2.295 5.389-4.23 8.475-5.802 1.948-0.992 3.981-1.821 6.064-2.523-0.259-0.383-0.474-0.767-0.642-1.15-2.096 0.522-4.168 1.17-6.189 1.985-3.35 1.352-6.568 3.118-9.494 5.356-2.913 2.242-5.533 4.971-7.557 8.186-0.027 0.045-0.057 0.095-0.08 0.142-0.008 0.016-0.012 0.03-0.017 0.046-4.068-1.743-8.03-3.685-11.857-5.839 6.987-8.277 19.387-13.787 33.528-13.787h1.576c0.094-0.199 0.2-0.392 0.327-0.575-0.469-0.871-0.707-1.742-0.71-2.605 0-0.862 0.245-1.651 0.71-2.324-0.471-0.871-0.707-1.742-0.71-2.606 0-0.861 0.246-1.649 0.71-2.322-0.469-0.871-0.707-1.743-0.71-2.605 0-0.863 0.246-1.652 0.71-2.324-0.274-0.511-0.46-1.021-0.575-1.529l2.622 0.005c0.126 0.378 0.322 0.713 0.521 0.999 0.741 0.989 1.673 1.708 2.629 2.359 1.931 1.28 4.038 2.215 6.192 2.964 2.162 0.738 4.395 1.241 6.641 1.572 2.249 0.329 4.524 0.457 6.787 0.374 2.262 0.083 4.537-0.046 6.786-0.375 2.249-0.332 4.479-0.835 6.642-1.573 2.156-0.749 4.262-1.684 6.192-2.966 0.956-0.65 1.89-1.369 2.628-2.358 0.2-0.284 0.396-0.62 0.521-0.994l2.624-0.005c-0.114 0.508-0.3 1.018-0.576 1.529 0.466 0.67 0.71 1.459 0.71 2.322 0 0.861-0.238 1.734-0.71 2.607 0.466 0.672 0.71 1.459 0.71 2.32 0 0.863-0.238 1.735-0.71 2.608 0.466 0.673 0.71 1.461 0.71 2.322s-0.237 1.733-0.709 2.606c0.128 0.184 0.233 0.376 0.327 0.574h1.576c14.144 0 26.544 5.51 33.528 13.787C196.422 249.464 192.461 251.405 188.395 253.147zM151.116 219.135c-3.614 1.024-7.363 1.552-11.119 1.498-3.753 0.051-7.504-0.475-11.116-1.5-2.161-0.632-4.317-1.427-6.3-2.489l0.613 0.002c1.1 0.527 2.229 0.984 3.377 1.382 2.162 0.739 4.394 1.241 6.641 1.572 2.249 0.33 4.524 0.457 6.787 0.374 2.262 0.083 4.537-0.044 6.786-0.375s4.479-0.835 6.642-1.573c1.144-0.397 2.271-0.853 3.369-1.379l0.62-0.001C155.434 217.707 153.276 218.503 151.116 219.135zM159.368 217.231c0.337-0.01 0.768 0.124 0.602 0.35-1.443 1.942-9.746 4.964-12.1 4.403-0.271-0.064-0.03-0.444 0.236-0.653L159.368 217.231zM131.894 221.331c0.263 0.209 0.504 0.589 0.234 0.653-2.354 0.561-10.656-2.461-12.098-4.403-0.168-0.226 0.262-0.359 0.599-0.35L131.894 221.331zM203.4 208.672c-2.036 1.327-4.313 2.271-6.687 2.76-1.185 0.243-2.397 0.371-3.605 0.386l-4.057-0.004-16.351-0.028-81.75 0.031-4.055 0.004c-1.214-0.015-2.423-0.144-3.61-0.386-2.37-0.489-4.654-1.423-6.689-2.755-4.082-2.651-7.124-6.899-8.256-11.646-0.288-1.18-0.462-2.408-0.519-3.606-0.03-0.581-0.024-1.279-0.029-1.963l-0.011-2.043-0.043-8.175-0.232-32.7-0.143-16.351-0.071-8.175c-0.025-2.647 0.141-5.27 0.528-7.88 1.528-10.46 6.688-20.271 13.954-28.093 4.252-4.646 9.21-8.634 14.6-11.973l2.495 2.873 2.284 2.628c0.37 0.434 0.802 0.895 1.056 1.267 0.308 0.417 0.584 0.87 0.84 1.338 1.007 1.878 1.697 4.025 1.896 6.066 0.049 0.533 0.049 0.95 0.018 1.519l-0.076 1.738-0.154 3.479-0.525 11.81H91.019c-8.51 0-15.473 6.962-15.473 15.474v60.948c0 8.51 6.963 15.473 15.473 15.473h97.961c8.513 0 15.474-6.963 15.474-15.473v-60.948c0-8.512-6.961-15.474-15.474-15.474H175.79l-0.523-11.81-0.154-3.479-0.078-1.738c-0.031-0.568-0.029-0.985 0.02-1.519 0.198-2.041 0.891-4.188 1.896-6.066 0.256-0.469 0.533-0.922 0.838-1.339 0.256-0.372 0.687-0.833 1.056-1.267l2.285-2.627 2.492-2.868c5.388 3.337 10.346 7.325 14.597 11.972 7.268 7.817 12.426 17.63 13.953 28.088 0.188 1.304 0.342 2.611 0.417 3.926 0.055 0.661 0.071 1.303 0.097 1.949l0.018 2.003-0.072 8.175-0.143 16.351-0.23 32.7-0.044 8.176-0.01 2.043c-0.007 0.692 0 1.367-0.03 1.951-0.057 1.22-0.231 2.432-0.518 3.616C210.522 201.774 207.482 206.022 203.4 208.672zM223.047 187.51c0 10.52-6.298 19.619-15.296 23.777 4.123-3.335 7.121-8.04 8.302-13.218 0.339-1.468 0.537-2.968 0.591-4.47 0.029-0.778 0.012-1.468 0.012-2.137l-0.01-2.043-0.043-8.176-0.231-32.7-0.145-16.351-0.07-8.175-0.055-2.083c-0.04-0.716-0.072-1.436-0.142-2.132-0.119-1.404-0.318-2.801-0.552-4.188-0.965-5.551-2.872-10.909-5.511-15.84-2.654-4.925-6.016-9.438-9.896-13.413-4.507-4.595-9.658-8.463-15.183-11.658l0.878-1.012 8.307-9.56c17.769 12.315 29.044 30.585 29.044 50.993V187.51zM225.521 174.356V171.3c1.661-0.875 3.21-1.937 4.591-3.165 3.854-3.401 6.406-8.104 7.01-12.976-1.319 4.731-4.431 8.731-8.329 11.261-1.041 0.681-2.141 1.254-3.271 1.729v-33.9c1.129 0.476 2.229 1.047 3.27 1.73 3.9 2.529 7.01 6.528 8.331 11.261-0.604-4.87-3.156-9.574-7.01-12.975-1.379-1.234-2.93-2.292-4.591-3.165v-5.176c10.587 3.451 18.223 12.998 18.223 24.215C243.743 161.357 236.107 170.905 225.521 174.356z" fill="white"></path><path d="M161.602 233.817l-0.3-0.154-0.27 0.235c-2.764 2.426-6.34 3.907-9.918 4.953-3.612 1.025-7.361 1.553-11.117 1.5-3.753 0.05-7.504-0.476-11.116-1.501-3.576-1.047-7.152-2.526-9.916-4.954l-0.267-0.235-0.306 0.154c-0.547 0.275-1.214 0.827-1.284 1.649-0.068 0.776 0.299 1.395 0.643 1.887 0.74 0.989 1.672 1.707 2.628 2.358 1.931 1.281 4.038 2.216 6.192 2.964 2.162 0.739 4.395 1.241 6.641 1.572 2.249 0.33 4.524 0.457 6.787 0.374 2.262 0.083 4.537-0.044 6.786-0.375 2.247-0.33 4.479-0.835 6.64-1.573 2.156-0.748 4.264-1.683 6.194-2.964 0.956-0.651 1.89-1.37 2.628-2.359 0.346-0.49 0.707-1.115 0.643-1.873C162.812 234.628 162.15 234.1 161.602 233.817zM132.128 241.702c-2.354 0.561-10.658-2.463-12.098-4.404-0.168-0.223 0.262-0.358 0.599-0.35l11.265 4.1C132.154 241.257 132.396 241.637 132.128 241.702zM159.97 237.298c-1.443 1.941-9.746 4.965-12.098 4.404-0.271-0.065-0.029-0.445 0.234-0.654l11.266-4.1C159.706 236.939 160.136 237.075 159.97 237.298z" fill="white"></path><path d="M161.601 228.887l-0.301-0.153-0.268 0.236c-2.764 2.427-6.34 3.907-9.916 4.953-3.614 1.024-7.363 1.551-11.119 1.499-3.753 0.049-7.504-0.476-11.116-1.5-3.576-1.047-7.153-2.526-9.916-4.954l-0.267-0.235-0.305 0.152c-0.548 0.276-1.215 0.828-1.285 1.65-0.068 0.777 0.299 1.395 0.642 1.887 0.741 0.989 1.673 1.707 2.629 2.359 1.931 1.281 4.037 2.215 6.192 2.964 2.162 0.738 4.394 1.242 6.641 1.573 2.249 0.33 4.524 0.456 6.787 0.373 2.262 0.083 4.537-0.044 6.786-0.375s4.479-0.835 6.642-1.573c2.156-0.749 4.262-1.684 6.192-2.965 0.956-0.652 1.89-1.371 2.628-2.36 0.346-0.489 0.707-1.117 0.643-1.872C162.814 229.695 162.148 229.169 161.601 228.887zM132.128 236.774c-2.354 0.563-10.652-2.464-12.098-4.404-0.168-0.224 0.262-0.358 0.599-0.35l11.263 4.101C132.156 236.331 132.396 236.71 132.128 236.774zM159.97 232.37c-1.447 1.94-9.749 4.967-12.1 4.404-0.27-0.064-0.03-0.443 0.236-0.653l11.262-4.101C159.706 232.012 160.136 232.146 159.97 232.37z" fill="white"></path><path d="M161.602 223.958l-0.3-0.155-0.27 0.237c-2.764 2.427-6.34 3.907-9.916 4.953-3.614 1.023-7.363 1.551-11.119 1.498-3.753 0.049-7.504-0.475-11.116-1.499-3.576-1.047-7.153-2.526-9.916-4.954l-0.267-0.235-0.306 0.154c-0.547 0.275-1.214 0.826-1.284 1.649-0.068 0.776 0.299 1.395 0.642 1.887 0.741 0.988 1.673 1.707 2.629 2.358 1.931 1.281 4.038 2.216 6.192 2.964 2.162 0.738 4.394 1.241 6.641 1.572 2.249 0.329 4.524 0.457 6.787 0.375 2.262 0.082 4.537-0.046 6.786-0.375 2.247-0.332 4.479-0.837 6.642-1.574 2.156-0.748 4.262-1.683 6.192-2.965 0.956-0.65 1.89-1.37 2.628-2.358 0.346-0.491 0.707-1.116 0.643-1.874C162.812 224.769 162.15 224.241 161.602 223.958zM132.128 231.842c-2.355 0.563-10.656-2.46-12.098-4.402-0.168-0.225 0.262-0.358 0.599-0.351l11.263 4.101C132.154 231.399 132.396 231.778 132.128 231.842zM159.97 227.439c-1.443 1.942-9.745 4.965-12.1 4.402-0.27-0.063-0.027-0.442 0.236-0.652l11.266-4.101C159.706 227.081 160.136 227.215 159.97 227.439z" fill="white"></path><path d="M161.601 219.03l-0.301-0.153-0.268 0.235c-2.765 2.425-6.34 3.906-9.918 4.952-3.612 1.024-7.361 1.551-11.117 1.498-3.753 0.05-7.504-0.474-11.116-1.5-3.576-1.046-7.152-2.526-9.916-4.952l-0.266-0.234-0.304 0.152c-0.551 0.273-1.218 0.827-1.287 1.649-0.068 0.776 0.299 1.395 0.643 1.887 0.74 0.989 1.672 1.707 2.628 2.358 1.932 1.28 4.038 2.215 6.192 2.963 2.162 0.738 4.395 1.241 6.641 1.572 2.249 0.329 4.524 0.457 6.787 0.374 2.262 0.082 4.537-0.045 6.786-0.375 2.247-0.331 4.479-0.835 6.64-1.572 2.156-0.749 4.264-1.684 6.194-2.965 0.956-0.65 1.888-1.369 2.628-2.358 0.344-0.49 0.707-1.115 0.643-1.874C162.813 219.842 162.15 219.311 161.601 219.03zM132.128 226.914c-2.354 0.562-10.656-2.462-12.098-4.402-0.168-0.223 0.26-0.358 0.599-0.349l11.263 4.099C132.156 226.472 132.396 226.852 132.128 226.914zM159.97 222.512c-1.443 1.94-9.746 4.964-12.098 4.402-0.271-0.063-0.032-0.442 0.234-0.652l11.262-4.099C159.706 222.153 160.136 222.289 159.97 222.512z" fill="white"></path><path d="M84.232 124.267v60.948c0 3.742 3.044 6.786 6.786 6.786h97.961c3.741 0 6.784-3.044 6.784-6.786v-60.948c0-3.742-3.043-6.787-6.784-6.787H91.019C87.276 117.479 84.232 120.524 84.232 124.267zM171.243 144.323c8.058 0 14.59 6.53 14.59 14.586s-6.532 14.587-14.59 14.587c-8.059 0-14.588-6.531-14.588-14.587S163.185 144.323 171.243 144.323zM108.756 144.323c8.054 0 14.586 6.53 14.586 14.586s-6.532 14.587-14.586 14.587c-8.057 0-14.588-6.531-14.588-14.587S100.699 144.323 108.756 144.323z" fill="white"></path></g></svg></g></svg></g><g></g></svg></g></svg></g></svg></g><defs><mask></mask></defs><mask><g id="SvgjsG1119"><svg viewBox="0 0 320 360" height="360" width="320"><g><svg></svg></g><g><svg viewBox="0 0 320 360" height="360" width="320"><g><path transform="translate(-25.80645,-5.80645) scale(10.32258,10.32258)" d="M18 33.5c8.55 0 15.5-6.95 15.5-15.5 0-8.55-6.95-15.5-15.5-15.5-8.55 0-15.5 6.95-15.5 15.5 0 8.55 6.95 15.5 15.5 15.5zM18.5 32.47v-1c7.04-0.26 12.71-5.93 12.97-12.97h1c-0.26 7.6-6.37 13.71-13.97 13.97zM18.5 3.53c7.6 0.26 13.71 6.37 13.97 13.97h-1c-0.26-7.04-5.93-12.71-12.97-12.97zM30.5 18c0 6.89-5.61 12.5-12.5 12.5-6.89 0-12.5-5.61-12.5-12.5 0-6.89 5.61-12.5 12.5-12.5 6.89 0 12.5 5.61 12.5 12.5zM17.5 3.53v1c-7.04 0.26-12.71 5.93-12.97 12.97h-1c0.26-7.6 6.37-13.71 13.97-13.97zM4.53 18.5c0.26 7.04 5.93 12.71 12.97 12.97v1c-7.6-0.26-13.71-6.37-13.97-13.97z" fill="black" fill-rule="nonzero" stroke="none" stroke-width="1" stroke-linecap="butt" stroke-linejoin="miter" stroke-miterlimit="10" stroke-dasharray="" stroke-dashoffset="0" font-family="none" font-weight="none" font-size="none" text-anchor="none" style="mix-blend-mode: normal"></path></g><g transform="matrix(1,0,0,1,123.72489514678514,90)"><svg viewBox="0 0 72.55020970642973 180" height="180" width="72.55020970642973"><g><svg viewBox="0 0 170.78227762803232 423.7177273151483" height="180" width="72.55020970642973"><g><rect width="170.78227762803232" height="16.232585760000003" x="0" y="147.51203579514825" fill="black" opacity="1" stroke-width="0" stroke="transparent" fill-opacity="1" class="rect-qz-0" rx="1%" id="SvgjsRect1118" data-palette-color="url(#68d3085d-a0d1-42c6-b706-2a347b46b3a0)"></rect></g><g><rect width="170.78227762803232" height="16.232585760000003" x="0" y="184.99146155514828" fill="black" opacity="1" stroke-width="0" stroke="transparent" fill-opacity="1" class="rect-qz-1" rx="1%" id="SvgjsRect1117" data-palette-color="url(#68d3085d-a0d1-42c6-b706-2a347b46b3a0)"></rect></g><g transform="matrix(1,0,0,1,0.4248315363881261,243.7177273151483)"><svg viewBox="0 0 169.93261455525607 180" height="180" width="169.93261455525607"><g id="SvgjsG1116"><svg viewBox="0 0 169.93261455525607 180" height="180" width="169.93261455525607" id="SvgjsSvg1115"><g><svg viewBox="0 0 169.93261455525607 180" height="180" width="169.93261455525607"><g transform="matrix(1,0,0,1,0,0)"><svg width="169.93261455525607" viewBox="1.49 -35.79 34.199999999999996 36.23" height="180" data-palette-color="url(#68d3085d-a0d1-42c6-b706-2a347b46b3a0)"><path d="M1.49-0.49L16.41-33.84Q17.24-34.35 18.31-35.79L18.31-35.79 18.55-35.79 32.01-3.39Q32.91-1.22 35.69-0.34L35.69-0.34 35.69 0.1Q34.11-0.07 31.88 0.04 29.66 0.15 27.95 0.44L27.95 0.44 27.76 0.2Q28.25-0.44 27.99-1.93 27.73-3.42 26.49-6.45L26.49-6.45 22.46-16.55Q15.28-16.67 10.6-16.5L10.6-16.5 4.96-3.39Q4.44-2.27 5.33-1.51 6.23-0.76 8.84-0.24L8.84-0.24 8.74 0.2Q4.49-0.12 1.81 0L1.81 0Q1.66-0.15 1.49-0.49L1.49-0.49ZM16.75-30.69L11.25-17.94Q14.79-17.85 21.85-17.94L21.85-17.94 16.75-30.69Z" opacity="1" transform="matrix(1,0,0,1,0,0)" fill="black" class="wordmark-text-0" id="SvgjsPath1114"></path></svg></g></svg></g></svg></g></svg></g><g transform="matrix(1,0,0,1,32.88196091644203,0)"><svg viewBox="0 0 105.01835579514825 105.01835579514825" height="105.01835579514825" width="105.01835579514825"><g><svg xmlns="http://www.w3.org/2000/svg" xmlns:xlink="http://www.w3.org/1999/xlink" version="1.1" x="0" y="0" viewBox="12 12 256 256" enable-background="new 0 0 280 280" xml:space="preserve" height="105.01835579514825" width="105.01835579514825" class="icon-icon-0" data-fill-palette-color="accent" id="SvgjsSvg1113"><g fill="black"><path d="M140 12C69.42 12 12 69.422 12 140.002 12 210.58 69.42 268 140 268c70.579 0 128-57.42 128-127.998C268 69.422 210.579 12 140 12zM140 47.972c20.581 0 39.399 6.068 53.91 16.095l-9.112 8.773-1.193 1.151c-3.657-2.026-7.473-3.758-11.377-5.188-5.162-1.88-10.492-3.271-15.897-4.139-4.318-0.674-8.674-1.02-13.029-1.074-1.024-1.674-2.119-3.391-3.301-5.155-1.183 1.765-2.276 3.481-3.301 5.156-4.355 0.056-8.713 0.401-13.032 1.076-5.404 0.866-10.734 2.259-15.896 4.14-3.904 1.431-7.717 3.162-11.372 5.188L95.2 72.841l-9.109-8.775C100.6 54.039 119.417 47.972 140 47.972zM171.991 89.816c-0.119 0.615-0.188 1.358-0.203 1.95l-0.077 1.738-0.155 3.479-0.523 11.81h-62.065l-0.524-11.81-0.153-3.479-0.077-1.738c-0.017-0.592-0.084-1.334-0.203-1.95-0.494-2.545-1.479-4.819-2.845-6.92-0.349-0.521-0.725-1.028-1.15-1.512-0.466-0.537-0.87-0.884-1.291-1.299l-2.507-2.414-2.51-2.418c3.373-1.994 6.904-3.739 10.54-5.216 5.014-2.025 10.23-3.578 15.555-4.63 4.213-0.858 8.493-1.403 12.8-1.661-1.125 1.841-2.166 3.627-3.133 5.35-4.836 0.684-9.631 1.506-14.534 2.384 4.44 1.928 8.287 4.207 11.696 6.509-0.365 3.324-0.758 6.563-1.443 9.841 3.603-1.548 7.148-3.091 10.813-4.646 3.665 1.555 7.209 3.098 10.814 4.646-0.688-3.278-1.083-6.517-1.446-9.841 3.411-2.302 7.26-4.581 11.698-6.509-4.901-0.878-9.694-1.7-14.534-2.384-0.966-1.723-2.008-3.509-3.133-5.35 4.305 0.26 8.585 0.805 12.797 1.663 5.323 1.052 10.54 2.604 15.554 4.632 3.636 1.476 7.165 3.222 10.539 5.216l-2.505 2.413-2.508 2.415c-0.42 0.414-0.824 0.761-1.291 1.299-0.426 0.483-0.801 0.991-1.15 1.512C173.472 84.997 172.485 87.271 171.991 89.816zM188.979 114.388c5.446 0 9.876 4.432 9.876 9.879v60.948c0 5.447-4.43 9.878-9.876 9.878H91.019c-5.446 0-9.877-4.431-9.877-9.878v-60.948c0-5.447 4.431-9.879 9.877-9.879H188.979zM54.479 131.101c-1.662 0.873-3.214 1.931-4.595 3.165-3.853 3.401-6.404 8.104-7.01 12.975 1.321-4.731 4.433-8.731 8.331-11.26 1.043-0.685 2.143-1.256 3.273-1.731v33.9c-1.133-0.475-2.232-1.048-3.273-1.729-3.9-2.53-7.012-6.53-8.332-11.262 0.605 4.871 3.156 9.574 7.01 12.976 1.383 1.229 2.934 2.291 4.596 3.166v3.056c-10.59-3.449-18.226-12.998-18.226-24.217 0-11.218 7.636-20.766 18.226-24.216V131.101zM56.953 187.51v-72.384c0-20.409 11.274-38.679 29.044-50.994l8.307 9.561 0.882 1.015c-5.525 3.196-10.677 7.065-15.185 11.661-7.755 7.919-13.484 18.113-15.401 29.252-0.484 2.769-0.733 5.599-0.749 8.401l-0.071 8.175-0.143 16.351-0.231 32.7-0.043 8.175-0.012 2.043c0 0.681-0.017 1.346 0.012 2.126 0.057 1.523 0.253 3.007 0.592 4.479 1.184 5.188 4.191 9.899 8.328 13.233C63.265 207.153 56.953 198.043 56.953 187.51zM188.395 253.147c-0.026-0.051-0.046-0.106-0.077-0.156l-0.042-0.065c-1.981-3.145-4.632-5.925-7.538-8.15-2.924-2.238-6.143-4.005-9.493-5.356-2.023-0.817-4.096-1.464-6.194-1.986-0.167 0.384-0.383 0.768-0.642 1.15 2.086 0.702 4.121 1.532 6.069 2.524 3.086 1.57 5.967 3.507 8.476 5.802 2.432 2.242 4.46 4.775 5.985 7.657-13.922 5.469-29.075 8.487-44.938 8.487-15.862 0-31.016-3.019-44.938-8.486 1.491-2.833 3.553-5.423 5.985-7.658 2.508-2.295 5.389-4.23 8.475-5.802 1.948-0.992 3.981-1.821 6.064-2.523-0.259-0.383-0.474-0.767-0.642-1.15-2.096 0.522-4.168 1.17-6.189 1.985-3.35 1.352-6.568 3.118-9.494 5.356-2.913 2.242-5.533 4.971-7.557 8.186-0.027 0.045-0.057 0.095-0.08 0.142-0.008 0.016-0.012 0.03-0.017 0.046-4.068-1.743-8.03-3.685-11.857-5.839 6.987-8.277 19.387-13.787 33.528-13.787h1.576c0.094-0.199 0.2-0.392 0.327-0.575-0.469-0.871-0.707-1.742-0.71-2.605 0-0.862 0.245-1.651 0.71-2.324-0.471-0.871-0.707-1.742-0.71-2.606 0-0.861 0.246-1.649 0.71-2.322-0.469-0.871-0.707-1.743-0.71-2.605 0-0.863 0.246-1.652 0.71-2.324-0.274-0.511-0.46-1.021-0.575-1.529l2.622 0.005c0.126 0.378 0.322 0.713 0.521 0.999 0.741 0.989 1.673 1.708 2.629 2.359 1.931 1.28 4.038 2.215 6.192 2.964 2.162 0.738 4.395 1.241 6.641 1.572 2.249 0.329 4.524 0.457 6.787 0.374 2.262 0.083 4.537-0.046 6.786-0.375 2.249-0.332 4.479-0.835 6.642-1.573 2.156-0.749 4.262-1.684 6.192-2.966 0.956-0.65 1.89-1.369 2.628-2.358 0.2-0.284 0.396-0.62 0.521-0.994l2.624-0.005c-0.114 0.508-0.3 1.018-0.576 1.529 0.466 0.67 0.71 1.459 0.71 2.322 0 0.861-0.238 1.734-0.71 2.607 0.466 0.672 0.71 1.459 0.71 2.32 0 0.863-0.238 1.735-0.71 2.608 0.466 0.673 0.71 1.461 0.71 2.322s-0.237 1.733-0.709 2.606c0.128 0.184 0.233 0.376 0.327 0.574h1.576c14.144 0 26.544 5.51 33.528 13.787C196.422 249.464 192.461 251.405 188.395 253.147zM151.116 219.135c-3.614 1.024-7.363 1.552-11.119 1.498-3.753 0.051-7.504-0.475-11.116-1.5-2.161-0.632-4.317-1.427-6.3-2.489l0.613 0.002c1.1 0.527 2.229 0.984 3.377 1.382 2.162 0.739 4.394 1.241 6.641 1.572 2.249 0.33 4.524 0.457 6.787 0.374 2.262 0.083 4.537-0.044 6.786-0.375s4.479-0.835 6.642-1.573c1.144-0.397 2.271-0.853 3.369-1.379l0.62-0.001C155.434 217.707 153.276 218.503 151.116 219.135zM159.368 217.231c0.337-0.01 0.768 0.124 0.602 0.35-1.443 1.942-9.746 4.964-12.1 4.403-0.271-0.064-0.03-0.444 0.236-0.653L159.368 217.231zM131.894 221.331c0.263 0.209 0.504 0.589 0.234 0.653-2.354 0.561-10.656-2.461-12.098-4.403-0.168-0.226 0.262-0.359 0.599-0.35L131.894 221.331zM203.4 208.672c-2.036 1.327-4.313 2.271-6.687 2.76-1.185 0.243-2.397 0.371-3.605 0.386l-4.057-0.004-16.351-0.028-81.75 0.031-4.055 0.004c-1.214-0.015-2.423-0.144-3.61-0.386-2.37-0.489-4.654-1.423-6.689-2.755-4.082-2.651-7.124-6.899-8.256-11.646-0.288-1.18-0.462-2.408-0.519-3.606-0.03-0.581-0.024-1.279-0.029-1.963l-0.011-2.043-0.043-8.175-0.232-32.7-0.143-16.351-0.071-8.175c-0.025-2.647 0.141-5.27 0.528-7.88 1.528-10.46 6.688-20.271 13.954-28.093 4.252-4.646 9.21-8.634 14.6-11.973l2.495 2.873 2.284 2.628c0.37 0.434 0.802 0.895 1.056 1.267 0.308 0.417 0.584 0.87 0.84 1.338 1.007 1.878 1.697 4.025 1.896 6.066 0.049 0.533 0.049 0.95 0.018 1.519l-0.076 1.738-0.154 3.479-0.525 11.81H91.019c-8.51 0-15.473 6.962-15.473 15.474v60.948c0 8.51 6.963 15.473 15.473 15.473h97.961c8.513 0 15.474-6.963 15.474-15.473v-60.948c0-8.512-6.961-15.474-15.474-15.474H175.79l-0.523-11.81-0.154-3.479-0.078-1.738c-0.031-0.568-0.029-0.985 0.02-1.519 0.198-2.041 0.891-4.188 1.896-6.066 0.256-0.469 0.533-0.922 0.838-1.339 0.256-0.372 0.687-0.833 1.056-1.267l2.285-2.627 2.492-2.868c5.388 3.337 10.346 7.325 14.597 11.972 7.268 7.817 12.426 17.63 13.953 28.088 0.188 1.304 0.342 2.611 0.417 3.926 0.055 0.661 0.071 1.303 0.097 1.949l0.018 2.003-0.072 8.175-0.143 16.351-0.23 32.7-0.044 8.176-0.01 2.043c-0.007 0.692 0 1.367-0.03 1.951-0.057 1.22-0.231 2.432-0.518 3.616C210.522 201.774 207.482 206.022 203.4 208.672zM223.047 187.51c0 10.52-6.298 19.619-15.296 23.777 4.123-3.335 7.121-8.04 8.302-13.218 0.339-1.468 0.537-2.968 0.591-4.47 0.029-0.778 0.012-1.468 0.012-2.137l-0.01-2.043-0.043-8.176-0.231-32.7-0.145-16.351-0.07-8.175-0.055-2.083c-0.04-0.716-0.072-1.436-0.142-2.132-0.119-1.404-0.318-2.801-0.552-4.188-0.965-5.551-2.872-10.909-5.511-15.84-2.654-4.925-6.016-9.438-9.896-13.413-4.507-4.595-9.658-8.463-15.183-11.658l0.878-1.012 8.307-9.56c17.769 12.315 29.044 30.585 29.044 50.993V187.51zM225.521 174.356V171.3c1.661-0.875 3.21-1.937 4.591-3.165 3.854-3.401 6.406-8.104 7.01-12.976-1.319 4.731-4.431 8.731-8.329 11.261-1.041 0.681-2.141 1.254-3.271 1.729v-33.9c1.129 0.476 2.229 1.047 3.27 1.73 3.9 2.529 7.01 6.528 8.331 11.261-0.604-4.87-3.156-9.574-7.01-12.975-1.379-1.234-2.93-2.292-4.591-3.165v-5.176c10.587 3.451 18.223 12.998 18.223 24.215C243.743 161.357 236.107 170.905 225.521 174.356z" fill="black"></path><path d="M161.602 233.817l-0.3-0.154-0.27 0.235c-2.764 2.426-6.34 3.907-9.918 4.953-3.612 1.025-7.361 1.553-11.117 1.5-3.753 0.05-7.504-0.476-11.116-1.501-3.576-1.047-7.152-2.526-9.916-4.954l-0.267-0.235-0.306 0.154c-0.547 0.275-1.214 0.827-1.284 1.649-0.068 0.776 0.299 1.395 0.643 1.887 0.74 0.989 1.672 1.707 2.628 2.358 1.931 1.281 4.038 2.216 6.192 2.964 2.162 0.739 4.395 1.241 6.641 1.572 2.249 0.33 4.524 0.457 6.787 0.374 2.262 0.083 4.537-0.044 6.786-0.375 2.247-0.33 4.479-0.835 6.64-1.573 2.156-0.748 4.264-1.683 6.194-2.964 0.956-0.651 1.89-1.37 2.628-2.359 0.346-0.49 0.707-1.115 0.643-1.873C162.812 234.628 162.15 234.1 161.602 233.817zM132.128 241.702c-2.354 0.561-10.658-2.463-12.098-4.404-0.168-0.223 0.262-0.358 0.599-0.35l11.265 4.1C132.154 241.257 132.396 241.637 132.128 241.702zM159.97 237.298c-1.443 1.941-9.746 4.965-12.098 4.404-0.271-0.065-0.029-0.445 0.234-0.654l11.266-4.1C159.706 236.939 160.136 237.075 159.97 237.298z" fill="black"></path><path d="M161.601 228.887l-0.301-0.153-0.268 0.236c-2.764 2.427-6.34 3.907-9.916 4.953-3.614 1.024-7.363 1.551-11.119 1.499-3.753 0.049-7.504-0.476-11.116-1.5-3.576-1.047-7.153-2.526-9.916-4.954l-0.267-0.235-0.305 0.152c-0.548 0.276-1.215 0.828-1.285 1.65-0.068 0.777 0.299 1.395 0.642 1.887 0.741 0.989 1.673 1.707 2.629 2.359 1.931 1.281 4.037 2.215 6.192 2.964 2.162 0.738 4.394 1.242 6.641 1.573 2.249 0.33 4.524 0.456 6.787 0.373 2.262 0.083 4.537-0.044 6.786-0.375s4.479-0.835 6.642-1.573c2.156-0.749 4.262-1.684 6.192-2.965 0.956-0.652 1.89-1.371 2.628-2.36 0.346-0.489 0.707-1.117 0.643-1.872C162.814 229.695 162.148 229.169 161.601 228.887zM132.128 236.774c-2.354 0.563-10.652-2.464-12.098-4.404-0.168-0.224 0.262-0.358 0.599-0.35l11.263 4.101C132.156 236.331 132.396 236.71 132.128 236.774zM159.97 232.37c-1.447 1.94-9.749 4.967-12.1 4.404-0.27-0.064-0.03-0.443 0.236-0.653l11.262-4.101C159.706 232.012 160.136 232.146 159.97 232.37z" fill="black"></path><path d="M161.602 223.958l-0.3-0.155-0.27 0.237c-2.764 2.427-6.34 3.907-9.916 4.953-3.614 1.023-7.363 1.551-11.119 1.498-3.753 0.049-7.504-0.475-11.116-1.499-3.576-1.047-7.153-2.526-9.916-4.954l-0.267-0.235-0.306 0.154c-0.547 0.275-1.214 0.826-1.284 1.649-0.068 0.776 0.299 1.395 0.642 1.887 0.741 0.988 1.673 1.707 2.629 2.358 1.931 1.281 4.038 2.216 6.192 2.964 2.162 0.738 4.394 1.241 6.641 1.572 2.249 0.329 4.524 0.457 6.787 0.375 2.262 0.082 4.537-0.046 6.786-0.375 2.247-0.332 4.479-0.837 6.642-1.574 2.156-0.748 4.262-1.683 6.192-2.965 0.956-0.65 1.89-1.37 2.628-2.358 0.346-0.491 0.707-1.116 0.643-1.874C162.812 224.769 162.15 224.241 161.602 223.958zM132.128 231.842c-2.355 0.563-10.656-2.46-12.098-4.402-0.168-0.225 0.262-0.358 0.599-0.351l11.263 4.101C132.154 231.399 132.396 231.778 132.128 231.842zM159.97 227.439c-1.443 1.942-9.745 4.965-12.1 4.402-0.27-0.063-0.027-0.442 0.236-0.652l11.266-4.101C159.706 227.081 160.136 227.215 159.97 227.439z" fill="black"></path><path d="M161.601 219.03l-0.301-0.153-0.268 0.235c-2.765 2.425-6.34 3.906-9.918 4.952-3.612 1.024-7.361 1.551-11.117 1.498-3.753 0.05-7.504-0.474-11.116-1.5-3.576-1.046-7.152-2.526-9.916-4.952l-0.266-0.234-0.304 0.152c-0.551 0.273-1.218 0.827-1.287 1.649-0.068 0.776 0.299 1.395 0.643 1.887 0.74 0.989 1.672 1.707 2.628 2.358 1.932 1.28 4.038 2.215 6.192 2.963 2.162 0.738 4.395 1.241 6.641 1.572 2.249 0.329 4.524 0.457 6.787 0.374 2.262 0.082 4.537-0.045 6.786-0.375 2.247-0.331 4.479-0.835 6.64-1.572 2.156-0.749 4.264-1.684 6.194-2.965 0.956-0.65 1.888-1.369 2.628-2.358 0.344-0.49 0.707-1.115 0.643-1.874C162.813 219.842 162.15 219.311 161.601 219.03zM132.128 226.914c-2.354 0.562-10.656-2.462-12.098-4.402-0.168-0.223 0.26-0.358 0.599-0.349l11.263 4.099C132.156 226.472 132.396 226.852 132.128 226.914zM159.97 222.512c-1.443 1.94-9.746 4.964-12.098 4.402-0.271-0.063-0.032-0.442 0.234-0.652l11.262-4.099C159.706 222.153 160.136 222.289 159.97 222.512z" fill="black"></path><path d="M84.232 124.267v60.948c0 3.742 3.044 6.786 6.786 6.786h97.961c3.741 0 6.784-3.044 6.784-6.786v-60.948c0-3.742-3.043-6.787-6.784-6.787H91.019C87.276 117.479 84.232 120.524 84.232 124.267zM171.243 144.323c8.058 0 14.59 6.53 14.59 14.586s-6.532 14.587-14.59 14.587c-8.059 0-14.588-6.531-14.588-14.587S163.185 144.323 171.243 144.323zM108.756 144.323c8.054 0 14.586 6.53 14.586 14.586s-6.532 14.587-14.586 14.587c-8.057 0-14.588-6.531-14.588-14.587S100.699 144.323 108.756 144.323z" fill="black"></path></g></svg></g></svg></g><g></g></svg></g></svg></g></svg></g><defs><mask></mask></defs></svg><rect width="320" height="360" fill="black" stroke="none" visibility="hidden"></rect></g></mask></svg><rect width="320" height="360" fill="black" stroke="none" visibility="hidden"></rect></g></mask><linearGradient x1="0.054" x2="0.941" y1="0.5" y2="0.5" id="561bbc12-e9b3-43d5-8b6a-a5a0759a4ced"><stop stop-color="#9c7945" offset="0"></stop><stop stop-color="#faf3aa" offset="0.498"></stop><stop stop-color="#9c7945" offset="1"></stop></linearGradient><rect width="320" height="360" fill="url(#561bbc12-e9b3-43d5-8b6a-a5a0759a4ced)" mask="url(#eeecbd8b-1abb-498c-a64c-2d816c592840)" data-fill-palette-color="accent"></rect><mask id="829f69d6-3df9-4e0e-818c-81cf959c73c5"><g id="SvgjsG1145"><svg viewBox="0 0 320 360" height="360" width="320"><g><svg></svg></g><g><svg viewBox="0 0 320 360" height="360" width="320"><g><path transform="translate(-25.80645,-5.80645) scale(10.32258,10.32258)" d="M18 33.5c8.55 0 15.5-6.95 15.5-15.5 0-8.55-6.95-15.5-15.5-15.5-8.55 0-15.5 6.95-15.5 15.5 0 8.55 6.95 15.5 15.5 15.5zM18.5 32.47v-1c7.04-0.26 12.71-5.93 12.97-12.97h1c-0.26 7.6-6.37 13.71-13.97 13.97zM18.5 3.53c7.6 0.26 13.71 6.37 13.97 13.97h-1c-0.26-7.04-5.93-12.71-12.97-12.97zM30.5 18c0 6.89-5.61 12.5-12.5 12.5-6.89 0-12.5-5.61-12.5-12.5 0-6.89 5.61-12.5 12.5-12.5 6.89 0 12.5 5.61 12.5 12.5zM17.5 3.53v1c-7.04 0.26-12.71 5.93-12.97 12.97h-1c0.26-7.6 6.37-13.71 13.97-13.97zM4.53 18.5c0.26 7.04 5.93 12.71 12.97 12.97v1c-7.6-0.26-13.71-6.37-13.97-13.97z" fill="white" fill-rule="nonzero" stroke="none" stroke-width="1" stroke-linecap="butt" stroke-linejoin="miter" stroke-miterlimit="10" stroke-dasharray="" stroke-dashoffset="0" font-family="none" font-weight="none" font-size="none" text-anchor="none" style="mix-blend-mode: normal"></path></g><g transform="matrix(1,0,0,1,123.72489514678514,90)"><svg viewBox="0 0 72.55020970642973 180" height="180" width="72.55020970642973"><g><svg viewBox="0 0 170.78227762803232 423.7177273151483" height="180" width="72.55020970642973"><g></g><g></g><g transform="matrix(1,0,0,1,0.4248315363881261,243.7177273151483)"><svg viewBox="0 0 169.93261455525607 180" height="180" width="169.93261455525607"><g id="SvgjsG1144"><svg viewBox="0 0 169.93261455525607 180" height="180" width="169.93261455525607" id="SvgjsSvg1143"><g><svg viewBox="0 0 169.93261455525607 180" height="180" width="169.93261455525607"><g transform="matrix(1,0,0,1,0,0)"><svg width="169.93261455525607" viewBox="1.49 -35.79 34.199999999999996 36.23" height="180" data-palette-color="url(#68d3085d-a0d1-42c6-b706-2a347b46b3a0)"></svg></g></svg></g></svg></g></svg></g><g transform="matrix(1,0,0,1,32.88196091644203,0)"><svg viewBox="0 0 105.01835579514825 105.01835579514825" height="105.01835579514825" width="105.01835579514825"><g><svg xmlns="http://www.w3.org/2000/svg" xmlns:xlink="http://www.w3.org/1999/xlink" version="1.1" x="0" y="0" viewBox="12 12 256 256" enable-background="new 0 0 280 280" xml:space="preserve" height="105.01835579514825" width="105.01835579514825" class="icon-icon-0" data-fill-palette-color="accent" id="SvgjsSvg1142"></svg></g></svg></g><g></g></svg></g></svg></g></svg></g><defs><mask></mask></defs><mask><g id="SvgjsG1141"><svg viewBox="0 0 320 360" height="360" width="320"><g><svg></svg></g><g><svg viewBox="0 0 320 360" height="360" width="320"><g><path transform="translate(-25.80645,-5.80645) scale(10.32258,10.32258)" d="M18 33.5c8.55 0 15.5-6.95 15.5-15.5 0-8.55-6.95-15.5-15.5-15.5-8.55 0-15.5 6.95-15.5 15.5 0 8.55 6.95 15.5 15.5 15.5zM18.5 32.47v-1c7.04-0.26 12.71-5.93 12.97-12.97h1c-0.26 7.6-6.37 13.71-13.97 13.97zM18.5 3.53c7.6 0.26 13.71 6.37 13.97 13.97h-1c-0.26-7.04-5.93-12.71-12.97-12.97zM30.5 18c0 6.89-5.61 12.5-12.5 12.5-6.89 0-12.5-5.61-12.5-12.5 0-6.89 5.61-12.5 12.5-12.5 6.89 0 12.5 5.61 12.5 12.5zM17.5 3.53v1c-7.04 0.26-12.71 5.93-12.97 12.97h-1c0.26-7.6 6.37-13.71 13.97-13.97zM4.53 18.5c0.26 7.04 5.93 12.71 12.97 12.97v1c-7.6-0.26-13.71-6.37-13.97-13.97z" fill="black" fill-rule="nonzero" stroke="none" stroke-width="1" stroke-linecap="butt" stroke-linejoin="miter" stroke-miterlimit="10" stroke-dasharray="" stroke-dashoffset="0" font-family="none" font-weight="none" font-size="none" text-anchor="none" style="mix-blend-mode: normal"></path></g><g transform="matrix(1,0,0,1,123.72489514678514,90)"><svg viewBox="0 0 72.55020970642973 180" height="180" width="72.55020970642973"><g><svg viewBox="0 0 170.78227762803232 423.7177273151483" height="180" width="72.55020970642973"><g><rect width="170.78227762803232" height="16.232585760000003" x="0" y="147.51203579514825" fill="black" opacity="1" stroke-width="0" stroke="transparent" fill-opacity="1" class="rect-qz-0" rx="1%" id="SvgjsRect1140" data-palette-color="url(#68d3085d-a0d1-42c6-b706-2a347b46b3a0)"></rect></g><g><rect width="170.78227762803232" height="16.232585760000003" x="0" y="184.99146155514828" fill="black" opacity="1" stroke-width="0" stroke="transparent" fill-opacity="1" class="rect-qz-1" rx="1%" id="SvgjsRect1139" data-palette-color="url(#68d3085d-a0d1-42c6-b706-2a347b46b3a0)"></rect></g><g transform="matrix(1,0,0,1,0.4248315363881261,243.7177273151483)"><svg viewBox="0 0 169.93261455525607 180" height="180" width="169.93261455525607"><g id="SvgjsG1138"><svg viewBox="0 0 169.93261455525607 180" height="180" width="169.93261455525607" id="SvgjsSvg1137"><g><svg viewBox="0 0 169.93261455525607 180" height="180" width="169.93261455525607"><g transform="matrix(1,0,0,1,0,0)"><svg width="169.93261455525607" viewBox="1.49 -35.79 34.199999999999996 36.23" height="180" data-palette-color="url(#68d3085d-a0d1-42c6-b706-2a347b46b3a0)"><path d="M1.49-0.49L16.41-33.84Q17.24-34.35 18.31-35.79L18.31-35.79 18.55-35.79 32.01-3.39Q32.91-1.22 35.69-0.34L35.69-0.34 35.69 0.1Q34.11-0.07 31.88 0.04 29.66 0.15 27.95 0.44L27.95 0.44 27.76 0.2Q28.25-0.44 27.99-1.93 27.73-3.42 26.49-6.45L26.49-6.45 22.46-16.55Q15.28-16.67 10.6-16.5L10.6-16.5 4.96-3.39Q4.44-2.27 5.33-1.51 6.23-0.76 8.84-0.24L8.84-0.24 8.74 0.2Q4.49-0.12 1.81 0L1.81 0Q1.66-0.15 1.49-0.49L1.49-0.49ZM16.75-30.69L11.25-17.94Q14.79-17.85 21.85-17.94L21.85-17.94 16.75-30.69Z" opacity="1" transform="matrix(1,0,0,1,0,0)" fill="black" class="wordmark-text-0" id="SvgjsPath1136"></path></svg></g></svg></g></svg></g></svg></g><g transform="matrix(1,0,0,1,32.88196091644203,0)"><svg viewBox="0 0 105.01835579514825 105.01835579514825" height="105.01835579514825" width="105.01835579514825"><g><svg xmlns="http://www.w3.org/2000/svg" xmlns:xlink="http://www.w3.org/1999/xlink" version="1.1" x="0" y="0" viewBox="12 12 256 256" enable-background="new 0 0 280 280" xml:space="preserve" height="105.01835579514825" width="105.01835579514825" class="icon-icon-0" data-fill-palette-color="accent" id="SvgjsSvg1135"><g fill="black"><path d="M140 12C69.42 12 12 69.422 12 140.002 12 210.58 69.42 268 140 268c70.579 0 128-57.42 128-127.998C268 69.422 210.579 12 140 12zM140 47.972c20.581 0 39.399 6.068 53.91 16.095l-9.112 8.773-1.193 1.151c-3.657-2.026-7.473-3.758-11.377-5.188-5.162-1.88-10.492-3.271-15.897-4.139-4.318-0.674-8.674-1.02-13.029-1.074-1.024-1.674-2.119-3.391-3.301-5.155-1.183 1.765-2.276 3.481-3.301 5.156-4.355 0.056-8.713 0.401-13.032 1.076-5.404 0.866-10.734 2.259-15.896 4.14-3.904 1.431-7.717 3.162-11.372 5.188L95.2 72.841l-9.109-8.775C100.6 54.039 119.417 47.972 140 47.972zM171.991 89.816c-0.119 0.615-0.188 1.358-0.203 1.95l-0.077 1.738-0.155 3.479-0.523 11.81h-62.065l-0.524-11.81-0.153-3.479-0.077-1.738c-0.017-0.592-0.084-1.334-0.203-1.95-0.494-2.545-1.479-4.819-2.845-6.92-0.349-0.521-0.725-1.028-1.15-1.512-0.466-0.537-0.87-0.884-1.291-1.299l-2.507-2.414-2.51-2.418c3.373-1.994 6.904-3.739 10.54-5.216 5.014-2.025 10.23-3.578 15.555-4.63 4.213-0.858 8.493-1.403 12.8-1.661-1.125 1.841-2.166 3.627-3.133 5.35-4.836 0.684-9.631 1.506-14.534 2.384 4.44 1.928 8.287 4.207 11.696 6.509-0.365 3.324-0.758 6.563-1.443 9.841 3.603-1.548 7.148-3.091 10.813-4.646 3.665 1.555 7.209 3.098 10.814 4.646-0.688-3.278-1.083-6.517-1.446-9.841 3.411-2.302 7.26-4.581 11.698-6.509-4.901-0.878-9.694-1.7-14.534-2.384-0.966-1.723-2.008-3.509-3.133-5.35 4.305 0.26 8.585 0.805 12.797 1.663 5.323 1.052 10.54 2.604 15.554 4.632 3.636 1.476 7.165 3.222 10.539 5.216l-2.505 2.413-2.508 2.415c-0.42 0.414-0.824 0.761-1.291 1.299-0.426 0.483-0.801 0.991-1.15 1.512C173.472 84.997 172.485 87.271 171.991 89.816zM188.979 114.388c5.446 0 9.876 4.432 9.876 9.879v60.948c0 5.447-4.43 9.878-9.876 9.878H91.019c-5.446 0-9.877-4.431-9.877-9.878v-60.948c0-5.447 4.431-9.879 9.877-9.879H188.979zM54.479 131.101c-1.662 0.873-3.214 1.931-4.595 3.165-3.853 3.401-6.404 8.104-7.01 12.975 1.321-4.731 4.433-8.731 8.331-11.26 1.043-0.685 2.143-1.256 3.273-1.731v33.9c-1.133-0.475-2.232-1.048-3.273-1.729-3.9-2.53-7.012-6.53-8.332-11.262 0.605 4.871 3.156 9.574 7.01 12.976 1.383 1.229 2.934 2.291 4.596 3.166v3.056c-10.59-3.449-18.226-12.998-18.226-24.217 0-11.218 7.636-20.766 18.226-24.216V131.101zM56.953 187.51v-72.384c0-20.409 11.274-38.679 29.044-50.994l8.307 9.561 0.882 1.015c-5.525 3.196-10.677 7.065-15.185 11.661-7.755 7.919-13.484 18.113-15.401 29.252-0.484 2.769-0.733 5.599-0.749 8.401l-0.071 8.175-0.143 16.351-0.231 32.7-0.043 8.175-0.012 2.043c0 0.681-0.017 1.346 0.012 2.126 0.057 1.523 0.253 3.007 0.592 4.479 1.184 5.188 4.191 9.899 8.328 13.233C63.265 207.153 56.953 198.043 56.953 187.51zM188.395 253.147c-0.026-0.051-0.046-0.106-0.077-0.156l-0.042-0.065c-1.981-3.145-4.632-5.925-7.538-8.15-2.924-2.238-6.143-4.005-9.493-5.356-2.023-0.817-4.096-1.464-6.194-1.986-0.167 0.384-0.383 0.768-0.642 1.15 2.086 0.702 4.121 1.532 6.069 2.524 3.086 1.57 5.967 3.507 8.476 5.802 2.432 2.242 4.46 4.775 5.985 7.657-13.922 5.469-29.075 8.487-44.938 8.487-15.862 0-31.016-3.019-44.938-8.486 1.491-2.833 3.553-5.423 5.985-7.658 2.508-2.295 5.389-4.23 8.475-5.802 1.948-0.992 3.981-1.821 6.064-2.523-0.259-0.383-0.474-0.767-0.642-1.15-2.096 0.522-4.168 1.17-6.189 1.985-3.35 1.352-6.568 3.118-9.494 5.356-2.913 2.242-5.533 4.971-7.557 8.186-0.027 0.045-0.057 0.095-0.08 0.142-0.008 0.016-0.012 0.03-0.017 0.046-4.068-1.743-8.03-3.685-11.857-5.839 6.987-8.277 19.387-13.787 33.528-13.787h1.576c0.094-0.199 0.2-0.392 0.327-0.575-0.469-0.871-0.707-1.742-0.71-2.605 0-0.862 0.245-1.651 0.71-2.324-0.471-0.871-0.707-1.742-0.71-2.606 0-0.861 0.246-1.649 0.71-2.322-0.469-0.871-0.707-1.743-0.71-2.605 0-0.863 0.246-1.652 0.71-2.324-0.274-0.511-0.46-1.021-0.575-1.529l2.622 0.005c0.126 0.378 0.322 0.713 0.521 0.999 0.741 0.989 1.673 1.708 2.629 2.359 1.931 1.28 4.038 2.215 6.192 2.964 2.162 0.738 4.395 1.241 6.641 1.572 2.249 0.329 4.524 0.457 6.787 0.374 2.262 0.083 4.537-0.046 6.786-0.375 2.249-0.332 4.479-0.835 6.642-1.573 2.156-0.749 4.262-1.684 6.192-2.966 0.956-0.65 1.89-1.369 2.628-2.358 0.2-0.284 0.396-0.62 0.521-0.994l2.624-0.005c-0.114 0.508-0.3 1.018-0.576 1.529 0.466 0.67 0.71 1.459 0.71 2.322 0 0.861-0.238 1.734-0.71 2.607 0.466 0.672 0.71 1.459 0.71 2.32 0 0.863-0.238 1.735-0.71 2.608 0.466 0.673 0.71 1.461 0.71 2.322s-0.237 1.733-0.709 2.606c0.128 0.184 0.233 0.376 0.327 0.574h1.576c14.144 0 26.544 5.51 33.528 13.787C196.422 249.464 192.461 251.405 188.395 253.147zM151.116 219.135c-3.614 1.024-7.363 1.552-11.119 1.498-3.753 0.051-7.504-0.475-11.116-1.5-2.161-0.632-4.317-1.427-6.3-2.489l0.613 0.002c1.1 0.527 2.229 0.984 3.377 1.382 2.162 0.739 4.394 1.241 6.641 1.572 2.249 0.33 4.524 0.457 6.787 0.374 2.262 0.083 4.537-0.044 6.786-0.375s4.479-0.835 6.642-1.573c1.144-0.397 2.271-0.853 3.369-1.379l0.62-0.001C155.434 217.707 153.276 218.503 151.116 219.135zM159.368 217.231c0.337-0.01 0.768 0.124 0.602 0.35-1.443 1.942-9.746 4.964-12.1 4.403-0.271-0.064-0.03-0.444 0.236-0.653L159.368 217.231zM131.894 221.331c0.263 0.209 0.504 0.589 0.234 0.653-2.354 0.561-10.656-2.461-12.098-4.403-0.168-0.226 0.262-0.359 0.599-0.35L131.894 221.331zM203.4 208.672c-2.036 1.327-4.313 2.271-6.687 2.76-1.185 0.243-2.397 0.371-3.605 0.386l-4.057-0.004-16.351-0.028-81.75 0.031-4.055 0.004c-1.214-0.015-2.423-0.144-3.61-0.386-2.37-0.489-4.654-1.423-6.689-2.755-4.082-2.651-7.124-6.899-8.256-11.646-0.288-1.18-0.462-2.408-0.519-3.606-0.03-0.581-0.024-1.279-0.029-1.963l-0.011-2.043-0.043-8.175-0.232-32.7-0.143-16.351-0.071-8.175c-0.025-2.647 0.141-5.27 0.528-7.88 1.528-10.46 6.688-20.271 13.954-28.093 4.252-4.646 9.21-8.634 14.6-11.973l2.495 2.873 2.284 2.628c0.37 0.434 0.802 0.895 1.056 1.267 0.308 0.417 0.584 0.87 0.84 1.338 1.007 1.878 1.697 4.025 1.896 6.066 0.049 0.533 0.049 0.95 0.018 1.519l-0.076 1.738-0.154 3.479-0.525 11.81H91.019c-8.51 0-15.473 6.962-15.473 15.474v60.948c0 8.51 6.963 15.473 15.473 15.473h97.961c8.513 0 15.474-6.963 15.474-15.473v-60.948c0-8.512-6.961-15.474-15.474-15.474H175.79l-0.523-11.81-0.154-3.479-0.078-1.738c-0.031-0.568-0.029-0.985 0.02-1.519 0.198-2.041 0.891-4.188 1.896-6.066 0.256-0.469 0.533-0.922 0.838-1.339 0.256-0.372 0.687-0.833 1.056-1.267l2.285-2.627 2.492-2.868c5.388 3.337 10.346 7.325 14.597 11.972 7.268 7.817 12.426 17.63 13.953 28.088 0.188 1.304 0.342 2.611 0.417 3.926 0.055 0.661 0.071 1.303 0.097 1.949l0.018 2.003-0.072 8.175-0.143 16.351-0.23 32.7-0.044 8.176-0.01 2.043c-0.007 0.692 0 1.367-0.03 1.951-0.057 1.22-0.231 2.432-0.518 3.616C210.522 201.774 207.482 206.022 203.4 208.672zM223.047 187.51c0 10.52-6.298 19.619-15.296 23.777 4.123-3.335 7.121-8.04 8.302-13.218 0.339-1.468 0.537-2.968 0.591-4.47 0.029-0.778 0.012-1.468 0.012-2.137l-0.01-2.043-0.043-8.176-0.231-32.7-0.145-16.351-0.07-8.175-0.055-2.083c-0.04-0.716-0.072-1.436-0.142-2.132-0.119-1.404-0.318-2.801-0.552-4.188-0.965-5.551-2.872-10.909-5.511-15.84-2.654-4.925-6.016-9.438-9.896-13.413-4.507-4.595-9.658-8.463-15.183-11.658l0.878-1.012 8.307-9.56c17.769 12.315 29.044 30.585 29.044 50.993V187.51zM225.521 174.356V171.3c1.661-0.875 3.21-1.937 4.591-3.165 3.854-3.401 6.406-8.104 7.01-12.976-1.319 4.731-4.431 8.731-8.329 11.261-1.041 0.681-2.141 1.254-3.271 1.729v-33.9c1.129 0.476 2.229 1.047 3.27 1.73 3.9 2.529 7.01 6.528 8.331 11.261-0.604-4.87-3.156-9.574-7.01-12.975-1.379-1.234-2.93-2.292-4.591-3.165v-5.176c10.587 3.451 18.223 12.998 18.223 24.215C243.743 161.357 236.107 170.905 225.521 174.356z" fill="black"></path><path d="M161.602 233.817l-0.3-0.154-0.27 0.235c-2.764 2.426-6.34 3.907-9.918 4.953-3.612 1.025-7.361 1.553-11.117 1.5-3.753 0.05-7.504-0.476-11.116-1.501-3.576-1.047-7.152-2.526-9.916-4.954l-0.267-0.235-0.306 0.154c-0.547 0.275-1.214 0.827-1.284 1.649-0.068 0.776 0.299 1.395 0.643 1.887 0.74 0.989 1.672 1.707 2.628 2.358 1.931 1.281 4.038 2.216 6.192 2.964 2.162 0.739 4.395 1.241 6.641 1.572 2.249 0.33 4.524 0.457 6.787 0.374 2.262 0.083 4.537-0.044 6.786-0.375 2.247-0.33 4.479-0.835 6.64-1.573 2.156-0.748 4.264-1.683 6.194-2.964 0.956-0.651 1.89-1.37 2.628-2.359 0.346-0.49 0.707-1.115 0.643-1.873C162.812 234.628 162.15 234.1 161.602 233.817zM132.128 241.702c-2.354 0.561-10.658-2.463-12.098-4.404-0.168-0.223 0.262-0.358 0.599-0.35l11.265 4.1C132.154 241.257 132.396 241.637 132.128 241.702zM159.97 237.298c-1.443 1.941-9.746 4.965-12.098 4.404-0.271-0.065-0.029-0.445 0.234-0.654l11.266-4.1C159.706 236.939 160.136 237.075 159.97 237.298z" fill="black"></path><path d="M161.601 228.887l-0.301-0.153-0.268 0.236c-2.764 2.427-6.34 3.907-9.916 4.953-3.614 1.024-7.363 1.551-11.119 1.499-3.753 0.049-7.504-0.476-11.116-1.5-3.576-1.047-7.153-2.526-9.916-4.954l-0.267-0.235-0.305 0.152c-0.548 0.276-1.215 0.828-1.285 1.65-0.068 0.777 0.299 1.395 0.642 1.887 0.741 0.989 1.673 1.707 2.629 2.359 1.931 1.281 4.037 2.215 6.192 2.964 2.162 0.738 4.394 1.242 6.641 1.573 2.249 0.33 4.524 0.456 6.787 0.373 2.262 0.083 4.537-0.044 6.786-0.375s4.479-0.835 6.642-1.573c2.156-0.749 4.262-1.684 6.192-2.965 0.956-0.652 1.89-1.371 2.628-2.36 0.346-0.489 0.707-1.117 0.643-1.872C162.814 229.695 162.148 229.169 161.601 228.887zM132.128 236.774c-2.354 0.563-10.652-2.464-12.098-4.404-0.168-0.224 0.262-0.358 0.599-0.35l11.263 4.101C132.156 236.331 132.396 236.71 132.128 236.774zM159.97 232.37c-1.447 1.94-9.749 4.967-12.1 4.404-0.27-0.064-0.03-0.443 0.236-0.653l11.262-4.101C159.706 232.012 160.136 232.146 159.97 232.37z" fill="black"></path><path d="M161.602 223.958l-0.3-0.155-0.27 0.237c-2.764 2.427-6.34 3.907-9.916 4.953-3.614 1.023-7.363 1.551-11.119 1.498-3.753 0.049-7.504-0.475-11.116-1.499-3.576-1.047-7.153-2.526-9.916-4.954l-0.267-0.235-0.306 0.154c-0.547 0.275-1.214 0.826-1.284 1.649-0.068 0.776 0.299 1.395 0.642 1.887 0.741 0.988 1.673 1.707 2.629 2.358 1.931 1.281 4.038 2.216 6.192 2.964 2.162 0.738 4.394 1.241 6.641 1.572 2.249 0.329 4.524 0.457 6.787 0.375 2.262 0.082 4.537-0.046 6.786-0.375 2.247-0.332 4.479-0.837 6.642-1.574 2.156-0.748 4.262-1.683 6.192-2.965 0.956-0.65 1.89-1.37 2.628-2.358 0.346-0.491 0.707-1.116 0.643-1.874C162.812 224.769 162.15 224.241 161.602 223.958zM132.128 231.842c-2.355 0.563-10.656-2.46-12.098-4.402-0.168-0.225 0.262-0.358 0.599-0.351l11.263 4.101C132.154 231.399 132.396 231.778 132.128 231.842zM159.97 227.439c-1.443 1.942-9.745 4.965-12.1 4.402-0.27-0.063-0.027-0.442 0.236-0.652l11.266-4.101C159.706 227.081 160.136 227.215 159.97 227.439z" fill="black"></path><path d="M161.601 219.03l-0.301-0.153-0.268 0.235c-2.765 2.425-6.34 3.906-9.918 4.952-3.612 1.024-7.361 1.551-11.117 1.498-3.753 0.05-7.504-0.474-11.116-1.5-3.576-1.046-7.152-2.526-9.916-4.952l-0.266-0.234-0.304 0.152c-0.551 0.273-1.218 0.827-1.287 1.649-0.068 0.776 0.299 1.395 0.643 1.887 0.74 0.989 1.672 1.707 2.628 2.358 1.932 1.28 4.038 2.215 6.192 2.963 2.162 0.738 4.395 1.241 6.641 1.572 2.249 0.329 4.524 0.457 6.787 0.374 2.262 0.082 4.537-0.045 6.786-0.375 2.247-0.331 4.479-0.835 6.64-1.572 2.156-0.749 4.264-1.684 6.194-2.965 0.956-0.65 1.888-1.369 2.628-2.358 0.344-0.49 0.707-1.115 0.643-1.874C162.813 219.842 162.15 219.311 161.601 219.03zM132.128 226.914c-2.354 0.562-10.656-2.462-12.098-4.402-0.168-0.223 0.26-0.358 0.599-0.349l11.263 4.099C132.156 226.472 132.396 226.852 132.128 226.914zM159.97 222.512c-1.443 1.94-9.746 4.964-12.098 4.402-0.271-0.063-0.032-0.442 0.234-0.652l11.262-4.099C159.706 222.153 160.136 222.289 159.97 222.512z" fill="black"></path><path d="M84.232 124.267v60.948c0 3.742 3.044 6.786 6.786 6.786h97.961c3.741 0 6.784-3.044 6.784-6.786v-60.948c0-3.742-3.043-6.787-6.784-6.787H91.019C87.276 117.479 84.232 120.524 84.232 124.267zM171.243 144.323c8.058 0 14.59 6.53 14.59 14.586s-6.532 14.587-14.59 14.587c-8.059 0-14.588-6.531-14.588-14.587S163.185 144.323 171.243 144.323zM108.756 144.323c8.054 0 14.586 6.53 14.586 14.586s-6.532 14.587-14.586 14.587c-8.057 0-14.588-6.531-14.588-14.587S100.699 144.323 108.756 144.323z" fill="black"></path></g></svg></g></svg></g><g></g></svg></g></svg></g></svg></g><defs><mask></mask></defs></svg><rect width="320" height="360" fill="black" stroke="none" visibility="hidden"></rect></g></mask><mask><g id="SvgjsG1134"><svg viewBox="0 0 320 360" height="360" width="320"><g><svg></svg></g><g><svg viewBox="0 0 320 360" height="360" width="320"><g><path transform="translate(-25.80645,-5.80645) scale(10.32258,10.32258)" d="M18 33.5c8.55 0 15.5-6.95 15.5-15.5 0-8.55-6.95-15.5-15.5-15.5-8.55 0-15.5 6.95-15.5 15.5 0 8.55 6.95 15.5 15.5 15.5zM18.5 32.47v-1c7.04-0.26 12.71-5.93 12.97-12.97h1c-0.26 7.6-6.37 13.71-13.97 13.97zM18.5 3.53c7.6 0.26 13.71 6.37 13.97 13.97h-1c-0.26-7.04-5.93-12.71-12.97-12.97zM30.5 18c0 6.89-5.61 12.5-12.5 12.5-6.89 0-12.5-5.61-12.5-12.5 0-6.89 5.61-12.5 12.5-12.5 6.89 0 12.5 5.61 12.5 12.5zM17.5 3.53v1c-7.04 0.26-12.71 5.93-12.97 12.97h-1c0.26-7.6 6.37-13.71 13.97-13.97zM4.53 18.5c0.26 7.04 5.93 12.71 12.97 12.97v1c-7.6-0.26-13.71-6.37-13.97-13.97z" fill="black" fill-rule="nonzero" stroke="none" stroke-width="1" stroke-linecap="butt" stroke-linejoin="miter" stroke-miterlimit="10" stroke-dasharray="" stroke-dashoffset="0" font-family="none" font-weight="none" font-size="none" text-anchor="none" style="mix-blend-mode: normal"></path></g><g transform="matrix(1,0,0,1,123.72489514678514,90)"><svg viewBox="0 0 72.55020970642973 180" height="180" width="72.55020970642973"><g><svg viewBox="0 0 170.78227762803232 423.7177273151483" height="180" width="72.55020970642973"><g></g><g></g><g transform="matrix(1,0,0,1,0.4248315363881261,243.7177273151483)"><svg viewBox="0 0 169.93261455525607 180" height="180" width="169.93261455525607"><g id="SvgjsG1133"><svg viewBox="0 0 169.93261455525607 180" height="180" width="169.93261455525607" id="SvgjsSvg1132"><g><svg viewBox="0 0 169.93261455525607 180" height="180" width="169.93261455525607"><g transform="matrix(1,0,0,1,0,0)"><svg width="169.93261455525607" viewBox="1.49 -35.79 34.199999999999996 36.23" height="180" data-palette-color="url(#68d3085d-a0d1-42c6-b706-2a347b46b3a0)"></svg></g></svg></g></svg></g></svg></g><g transform="matrix(1,0,0,1,32.88196091644203,0)"><svg viewBox="0 0 105.01835579514825 105.01835579514825" height="105.01835579514825" width="105.01835579514825"><g><svg xmlns="http://www.w3.org/2000/svg" xmlns:xlink="http://www.w3.org/1999/xlink" version="1.1" x="0" y="0" viewBox="12 12 256 256" enable-background="new 0 0 280 280" xml:space="preserve" height="105.01835579514825" width="105.01835579514825" class="icon-icon-0" data-fill-palette-color="accent" id="SvgjsSvg1131"><g fill="black"><path d="M140 12C69.42 12 12 69.422 12 140.002 12 210.58 69.42 268 140 268c70.579 0 128-57.42 128-127.998C268 69.422 210.579 12 140 12zM140 47.972c20.581 0 39.399 6.068 53.91 16.095l-9.112 8.773-1.193 1.151c-3.657-2.026-7.473-3.758-11.377-5.188-5.162-1.88-10.492-3.271-15.897-4.139-4.318-0.674-8.674-1.02-13.029-1.074-1.024-1.674-2.119-3.391-3.301-5.155-1.183 1.765-2.276 3.481-3.301 5.156-4.355 0.056-8.713 0.401-13.032 1.076-5.404 0.866-10.734 2.259-15.896 4.14-3.904 1.431-7.717 3.162-11.372 5.188L95.2 72.841l-9.109-8.775C100.6 54.039 119.417 47.972 140 47.972zM171.991 89.816c-0.119 0.615-0.188 1.358-0.203 1.95l-0.077 1.738-0.155 3.479-0.523 11.81h-62.065l-0.524-11.81-0.153-3.479-0.077-1.738c-0.017-0.592-0.084-1.334-0.203-1.95-0.494-2.545-1.479-4.819-2.845-6.92-0.349-0.521-0.725-1.028-1.15-1.512-0.466-0.537-0.87-0.884-1.291-1.299l-2.507-2.414-2.51-2.418c3.373-1.994 6.904-3.739 10.54-5.216 5.014-2.025 10.23-3.578 15.555-4.63 4.213-0.858 8.493-1.403 12.8-1.661-1.125 1.841-2.166 3.627-3.133 5.35-4.836 0.684-9.631 1.506-14.534 2.384 4.44 1.928 8.287 4.207 11.696 6.509-0.365 3.324-0.758 6.563-1.443 9.841 3.603-1.548 7.148-3.091 10.813-4.646 3.665 1.555 7.209 3.098 10.814 4.646-0.688-3.278-1.083-6.517-1.446-9.841 3.411-2.302 7.26-4.581 11.698-6.509-4.901-0.878-9.694-1.7-14.534-2.384-0.966-1.723-2.008-3.509-3.133-5.35 4.305 0.26 8.585 0.805 12.797 1.663 5.323 1.052 10.54 2.604 15.554 4.632 3.636 1.476 7.165 3.222 10.539 5.216l-2.505 2.413-2.508 2.415c-0.42 0.414-0.824 0.761-1.291 1.299-0.426 0.483-0.801 0.991-1.15 1.512C173.472 84.997 172.485 87.271 171.991 89.816zM188.979 114.388c5.446 0 9.876 4.432 9.876 9.879v60.948c0 5.447-4.43 9.878-9.876 9.878H91.019c-5.446 0-9.877-4.431-9.877-9.878v-60.948c0-5.447 4.431-9.879 9.877-9.879H188.979zM54.479 131.101c-1.662 0.873-3.214 1.931-4.595 3.165-3.853 3.401-6.404 8.104-7.01 12.975 1.321-4.731 4.433-8.731 8.331-11.26 1.043-0.685 2.143-1.256 3.273-1.731v33.9c-1.133-0.475-2.232-1.048-3.273-1.729-3.9-2.53-7.012-6.53-8.332-11.262 0.605 4.871 3.156 9.574 7.01 12.976 1.383 1.229 2.934 2.291 4.596 3.166v3.056c-10.59-3.449-18.226-12.998-18.226-24.217 0-11.218 7.636-20.766 18.226-24.216V131.101zM56.953 187.51v-72.384c0-20.409 11.274-38.679 29.044-50.994l8.307 9.561 0.882 1.015c-5.525 3.196-10.677 7.065-15.185 11.661-7.755 7.919-13.484 18.113-15.401 29.252-0.484 2.769-0.733 5.599-0.749 8.401l-0.071 8.175-0.143 16.351-0.231 32.7-0.043 8.175-0.012 2.043c0 0.681-0.017 1.346 0.012 2.126 0.057 1.523 0.253 3.007 0.592 4.479 1.184 5.188 4.191 9.899 8.328 13.233C63.265 207.153 56.953 198.043 56.953 187.51zM188.395 253.147c-0.026-0.051-0.046-0.106-0.077-0.156l-0.042-0.065c-1.981-3.145-4.632-5.925-7.538-8.15-2.924-2.238-6.143-4.005-9.493-5.356-2.023-0.817-4.096-1.464-6.194-1.986-0.167 0.384-0.383 0.768-0.642 1.15 2.086 0.702 4.121 1.532 6.069 2.524 3.086 1.57 5.967 3.507 8.476 5.802 2.432 2.242 4.46 4.775 5.985 7.657-13.922 5.469-29.075 8.487-44.938 8.487-15.862 0-31.016-3.019-44.938-8.486 1.491-2.833 3.553-5.423 5.985-7.658 2.508-2.295 5.389-4.23 8.475-5.802 1.948-0.992 3.981-1.821 6.064-2.523-0.259-0.383-0.474-0.767-0.642-1.15-2.096 0.522-4.168 1.17-6.189 1.985-3.35 1.352-6.568 3.118-9.494 5.356-2.913 2.242-5.533 4.971-7.557 8.186-0.027 0.045-0.057 0.095-0.08 0.142-0.008 0.016-0.012 0.03-0.017 0.046-4.068-1.743-8.03-3.685-11.857-5.839 6.987-8.277 19.387-13.787 33.528-13.787h1.576c0.094-0.199 0.2-0.392 0.327-0.575-0.469-0.871-0.707-1.742-0.71-2.605 0-0.862 0.245-1.651 0.71-2.324-0.471-0.871-0.707-1.742-0.71-2.606 0-0.861 0.246-1.649 0.71-2.322-0.469-0.871-0.707-1.743-0.71-2.605 0-0.863 0.246-1.652 0.71-2.324-0.274-0.511-0.46-1.021-0.575-1.529l2.622 0.005c0.126 0.378 0.322 0.713 0.521 0.999 0.741 0.989 1.673 1.708 2.629 2.359 1.931 1.28 4.038 2.215 6.192 2.964 2.162 0.738 4.395 1.241 6.641 1.572 2.249 0.329 4.524 0.457 6.787 0.374 2.262 0.083 4.537-0.046 6.786-0.375 2.249-0.332 4.479-0.835 6.642-1.573 2.156-0.749 4.262-1.684 6.192-2.966 0.956-0.65 1.89-1.369 2.628-2.358 0.2-0.284 0.396-0.62 0.521-0.994l2.624-0.005c-0.114 0.508-0.3 1.018-0.576 1.529 0.466 0.67 0.71 1.459 0.71 2.322 0 0.861-0.238 1.734-0.71 2.607 0.466 0.672 0.71 1.459 0.71 2.32 0 0.863-0.238 1.735-0.71 2.608 0.466 0.673 0.71 1.461 0.71 2.322s-0.237 1.733-0.709 2.606c0.128 0.184 0.233 0.376 0.327 0.574h1.576c14.144 0 26.544 5.51 33.528 13.787C196.422 249.464 192.461 251.405 188.395 253.147zM151.116 219.135c-3.614 1.024-7.363 1.552-11.119 1.498-3.753 0.051-7.504-0.475-11.116-1.5-2.161-0.632-4.317-1.427-6.3-2.489l0.613 0.002c1.1 0.527 2.229 0.984 3.377 1.382 2.162 0.739 4.394 1.241 6.641 1.572 2.249 0.33 4.524 0.457 6.787 0.374 2.262 0.083 4.537-0.044 6.786-0.375s4.479-0.835 6.642-1.573c1.144-0.397 2.271-0.853 3.369-1.379l0.62-0.001C155.434 217.707 153.276 218.503 151.116 219.135zM159.368 217.231c0.337-0.01 0.768 0.124 0.602 0.35-1.443 1.942-9.746 4.964-12.1 4.403-0.271-0.064-0.03-0.444 0.236-0.653L159.368 217.231zM131.894 221.331c0.263 0.209 0.504 0.589 0.234 0.653-2.354 0.561-10.656-2.461-12.098-4.403-0.168-0.226 0.262-0.359 0.599-0.35L131.894 221.331zM203.4 208.672c-2.036 1.327-4.313 2.271-6.687 2.76-1.185 0.243-2.397 0.371-3.605 0.386l-4.057-0.004-16.351-0.028-81.75 0.031-4.055 0.004c-1.214-0.015-2.423-0.144-3.61-0.386-2.37-0.489-4.654-1.423-6.689-2.755-4.082-2.651-7.124-6.899-8.256-11.646-0.288-1.18-0.462-2.408-0.519-3.606-0.03-0.581-0.024-1.279-0.029-1.963l-0.011-2.043-0.043-8.175-0.232-32.7-0.143-16.351-0.071-8.175c-0.025-2.647 0.141-5.27 0.528-7.88 1.528-10.46 6.688-20.271 13.954-28.093 4.252-4.646 9.21-8.634 14.6-11.973l2.495 2.873 2.284 2.628c0.37 0.434 0.802 0.895 1.056 1.267 0.308 0.417 0.584 0.87 0.84 1.338 1.007 1.878 1.697 4.025 1.896 6.066 0.049 0.533 0.049 0.95 0.018 1.519l-0.076 1.738-0.154 3.479-0.525 11.81H91.019c-8.51 0-15.473 6.962-15.473 15.474v60.948c0 8.51 6.963 15.473 15.473 15.473h97.961c8.513 0 15.474-6.963 15.474-15.473v-60.948c0-8.512-6.961-15.474-15.474-15.474H175.79l-0.523-11.81-0.154-3.479-0.078-1.738c-0.031-0.568-0.029-0.985 0.02-1.519 0.198-2.041 0.891-4.188 1.896-6.066 0.256-0.469 0.533-0.922 0.838-1.339 0.256-0.372 0.687-0.833 1.056-1.267l2.285-2.627 2.492-2.868c5.388 3.337 10.346 7.325 14.597 11.972 7.268 7.817 12.426 17.63 13.953 28.088 0.188 1.304 0.342 2.611 0.417 3.926 0.055 0.661 0.071 1.303 0.097 1.949l0.018 2.003-0.072 8.175-0.143 16.351-0.23 32.7-0.044 8.176-0.01 2.043c-0.007 0.692 0 1.367-0.03 1.951-0.057 1.22-0.231 2.432-0.518 3.616C210.522 201.774 207.482 206.022 203.4 208.672zM223.047 187.51c0 10.52-6.298 19.619-15.296 23.777 4.123-3.335 7.121-8.04 8.302-13.218 0.339-1.468 0.537-2.968 0.591-4.47 0.029-0.778 0.012-1.468 0.012-2.137l-0.01-2.043-0.043-8.176-0.231-32.7-0.145-16.351-0.07-8.175-0.055-2.083c-0.04-0.716-0.072-1.436-0.142-2.132-0.119-1.404-0.318-2.801-0.552-4.188-0.965-5.551-2.872-10.909-5.511-15.84-2.654-4.925-6.016-9.438-9.896-13.413-4.507-4.595-9.658-8.463-15.183-11.658l0.878-1.012 8.307-9.56c17.769 12.315 29.044 30.585 29.044 50.993V187.51zM225.521 174.356V171.3c1.661-0.875 3.21-1.937 4.591-3.165 3.854-3.401 6.406-8.104 7.01-12.976-1.319 4.731-4.431 8.731-8.329 11.261-1.041 0.681-2.141 1.254-3.271 1.729v-33.9c1.129 0.476 2.229 1.047 3.27 1.73 3.9 2.529 7.01 6.528 8.331 11.261-0.604-4.87-3.156-9.574-7.01-12.975-1.379-1.234-2.93-2.292-4.591-3.165v-5.176c10.587 3.451 18.223 12.998 18.223 24.215C243.743 161.357 236.107 170.905 225.521 174.356z" fill="black"></path><path d="M161.602 233.817l-0.3-0.154-0.27 0.235c-2.764 2.426-6.34 3.907-9.918 4.953-3.612 1.025-7.361 1.553-11.117 1.5-3.753 0.05-7.504-0.476-11.116-1.501-3.576-1.047-7.152-2.526-9.916-4.954l-0.267-0.235-0.306 0.154c-0.547 0.275-1.214 0.827-1.284 1.649-0.068 0.776 0.299 1.395 0.643 1.887 0.74 0.989 1.672 1.707 2.628 2.358 1.931 1.281 4.038 2.216 6.192 2.964 2.162 0.739 4.395 1.241 6.641 1.572 2.249 0.33 4.524 0.457 6.787 0.374 2.262 0.083 4.537-0.044 6.786-0.375 2.247-0.33 4.479-0.835 6.64-1.573 2.156-0.748 4.264-1.683 6.194-2.964 0.956-0.651 1.89-1.37 2.628-2.359 0.346-0.49 0.707-1.115 0.643-1.873C162.812 234.628 162.15 234.1 161.602 233.817zM132.128 241.702c-2.354 0.561-10.658-2.463-12.098-4.404-0.168-0.223 0.262-0.358 0.599-0.35l11.265 4.1C132.154 241.257 132.396 241.637 132.128 241.702zM159.97 237.298c-1.443 1.941-9.746 4.965-12.098 4.404-0.271-0.065-0.029-0.445 0.234-0.654l11.266-4.1C159.706 236.939 160.136 237.075 159.97 237.298z" fill="black"></path><path d="M161.601 228.887l-0.301-0.153-0.268 0.236c-2.764 2.427-6.34 3.907-9.916 4.953-3.614 1.024-7.363 1.551-11.119 1.499-3.753 0.049-7.504-0.476-11.116-1.5-3.576-1.047-7.153-2.526-9.916-4.954l-0.267-0.235-0.305 0.152c-0.548 0.276-1.215 0.828-1.285 1.65-0.068 0.777 0.299 1.395 0.642 1.887 0.741 0.989 1.673 1.707 2.629 2.359 1.931 1.281 4.037 2.215 6.192 2.964 2.162 0.738 4.394 1.242 6.641 1.573 2.249 0.33 4.524 0.456 6.787 0.373 2.262 0.083 4.537-0.044 6.786-0.375s4.479-0.835 6.642-1.573c2.156-0.749 4.262-1.684 6.192-2.965 0.956-0.652 1.89-1.371 2.628-2.36 0.346-0.489 0.707-1.117 0.643-1.872C162.814 229.695 162.148 229.169 161.601 228.887zM132.128 236.774c-2.354 0.563-10.652-2.464-12.098-4.404-0.168-0.224 0.262-0.358 0.599-0.35l11.263 4.101C132.156 236.331 132.396 236.71 132.128 236.774zM159.97 232.37c-1.447 1.94-9.749 4.967-12.1 4.404-0.27-0.064-0.03-0.443 0.236-0.653l11.262-4.101C159.706 232.012 160.136 232.146 159.97 232.37z" fill="black"></path><path d="M161.602 223.958l-0.3-0.155-0.27 0.237c-2.764 2.427-6.34 3.907-9.916 4.953-3.614 1.023-7.363 1.551-11.119 1.498-3.753 0.049-7.504-0.475-11.116-1.499-3.576-1.047-7.153-2.526-9.916-4.954l-0.267-0.235-0.306 0.154c-0.547 0.275-1.214 0.826-1.284 1.649-0.068 0.776 0.299 1.395 0.642 1.887 0.741 0.988 1.673 1.707 2.629 2.358 1.931 1.281 4.038 2.216 6.192 2.964 2.162 0.738 4.394 1.241 6.641 1.572 2.249 0.329 4.524 0.457 6.787 0.375 2.262 0.082 4.537-0.046 6.786-0.375 2.247-0.332 4.479-0.837 6.642-1.574 2.156-0.748 4.262-1.683 6.192-2.965 0.956-0.65 1.89-1.37 2.628-2.358 0.346-0.491 0.707-1.116 0.643-1.874C162.812 224.769 162.15 224.241 161.602 223.958zM132.128 231.842c-2.355 0.563-10.656-2.46-12.098-4.402-0.168-0.225 0.262-0.358 0.599-0.351l11.263 4.101C132.154 231.399 132.396 231.778 132.128 231.842zM159.97 227.439c-1.443 1.942-9.745 4.965-12.1 4.402-0.27-0.063-0.027-0.442 0.236-0.652l11.266-4.101C159.706 227.081 160.136 227.215 159.97 227.439z" fill="black"></path><path d="M161.601 219.03l-0.301-0.153-0.268 0.235c-2.765 2.425-6.34 3.906-9.918 4.952-3.612 1.024-7.361 1.551-11.117 1.498-3.753 0.05-7.504-0.474-11.116-1.5-3.576-1.046-7.152-2.526-9.916-4.952l-0.266-0.234-0.304 0.152c-0.551 0.273-1.218 0.827-1.287 1.649-0.068 0.776 0.299 1.395 0.643 1.887 0.74 0.989 1.672 1.707 2.628 2.358 1.932 1.28 4.038 2.215 6.192 2.963 2.162 0.738 4.395 1.241 6.641 1.572 2.249 0.329 4.524 0.457 6.787 0.374 2.262 0.082 4.537-0.045 6.786-0.375 2.247-0.331 4.479-0.835 6.64-1.572 2.156-0.749 4.264-1.684 6.194-2.965 0.956-0.65 1.888-1.369 2.628-2.358 0.344-0.49 0.707-1.115 0.643-1.874C162.813 219.842 162.15 219.311 161.601 219.03zM132.128 226.914c-2.354 0.562-10.656-2.462-12.098-4.402-0.168-0.223 0.26-0.358 0.599-0.349l11.263 4.099C132.156 226.472 132.396 226.852 132.128 226.914zM159.97 222.512c-1.443 1.94-9.746 4.964-12.098 4.402-0.271-0.063-0.032-0.442 0.234-0.652l11.262-4.099C159.706 222.153 160.136 222.289 159.97 222.512z" fill="black"></path><path d="M84.232 124.267v60.948c0 3.742 3.044 6.786 6.786 6.786h97.961c3.741 0 6.784-3.044 6.784-6.786v-60.948c0-3.742-3.043-6.787-6.784-6.787H91.019C87.276 117.479 84.232 120.524 84.232 124.267zM171.243 144.323c8.058 0 14.59 6.53 14.59 14.586s-6.532 14.587-14.59 14.587c-8.059 0-14.588-6.531-14.588-14.587S163.185 144.323 171.243 144.323zM108.756 144.323c8.054 0 14.586 6.53 14.586 14.586s-6.532 14.587-14.586 14.587c-8.057 0-14.588-6.531-14.588-14.587S100.699 144.323 108.756 144.323z" fill="black"></path></g></svg></g></svg></g><g></g></svg></g></svg></g></svg></g><defs><mask></mask></defs><mask><g id="SvgjsG1130"><svg viewBox="0 0 320 360" height="360" width="320"><g><svg></svg></g><g><svg viewBox="0 0 320 360" height="360" width="320"><g><path transform="translate(-25.80645,-5.80645) scale(10.32258,10.32258)" d="M18 33.5c8.55 0 15.5-6.95 15.5-15.5 0-8.55-6.95-15.5-15.5-15.5-8.55 0-15.5 6.95-15.5 15.5 0 8.55 6.95 15.5 15.5 15.5zM18.5 32.47v-1c7.04-0.26 12.71-5.93 12.97-12.97h1c-0.26 7.6-6.37 13.71-13.97 13.97zM18.5 3.53c7.6 0.26 13.71 6.37 13.97 13.97h-1c-0.26-7.04-5.93-12.71-12.97-12.97zM30.5 18c0 6.89-5.61 12.5-12.5 12.5-6.89 0-12.5-5.61-12.5-12.5 0-6.89 5.61-12.5 12.5-12.5 6.89 0 12.5 5.61 12.5 12.5zM17.5 3.53v1c-7.04 0.26-12.71 5.93-12.97 12.97h-1c0.26-7.6 6.37-13.71 13.97-13.97zM4.53 18.5c0.26 7.04 5.93 12.71 12.97 12.97v1c-7.6-0.26-13.71-6.37-13.97-13.97z" fill="black" fill-rule="nonzero" stroke="none" stroke-width="1" stroke-linecap="butt" stroke-linejoin="miter" stroke-miterlimit="10" stroke-dasharray="" stroke-dashoffset="0" font-family="none" font-weight="none" font-size="none" text-anchor="none" style="mix-blend-mode: normal"></path></g><g transform="matrix(1,0,0,1,123.72489514678514,90)"><svg viewBox="0 0 72.55020970642973 180" height="180" width="72.55020970642973"><g><svg viewBox="0 0 170.78227762803232 423.7177273151483" height="180" width="72.55020970642973"><g><rect width="170.78227762803232" height="16.232585760000003" x="0" y="147.51203579514825" fill="black" opacity="1" stroke-width="0" stroke="transparent" fill-opacity="1" class="rect-qz-0" rx="1%" id="SvgjsRect1129" data-palette-color="url(#68d3085d-a0d1-42c6-b706-2a347b46b3a0)"></rect></g><g><rect width="170.78227762803232" height="16.232585760000003" x="0" y="184.99146155514828" fill="black" opacity="1" stroke-width="0" stroke="transparent" fill-opacity="1" class="rect-qz-1" rx="1%" id="SvgjsRect1128" data-palette-color="url(#68d3085d-a0d1-42c6-b706-2a347b46b3a0)"></rect></g><g transform="matrix(1,0,0,1,0.4248315363881261,243.7177273151483)"><svg viewBox="0 0 169.93261455525607 180" height="180" width="169.93261455525607"><g id="SvgjsG1127"><svg viewBox="0 0 169.93261455525607 180" height="180" width="169.93261455525607" id="SvgjsSvg1126"><g><svg viewBox="0 0 169.93261455525607 180" height="180" width="169.93261455525607"><g transform="matrix(1,0,0,1,0,0)"><svg width="169.93261455525607" viewBox="1.49 -35.79 34.199999999999996 36.23" height="180" data-palette-color="url(#68d3085d-a0d1-42c6-b706-2a347b46b3a0)"><path d="M1.49-0.49L16.41-33.84Q17.24-34.35 18.31-35.79L18.31-35.79 18.55-35.79 32.01-3.39Q32.91-1.22 35.69-0.34L35.69-0.34 35.69 0.1Q34.11-0.07 31.88 0.04 29.66 0.15 27.95 0.44L27.95 0.44 27.76 0.2Q28.25-0.44 27.99-1.93 27.73-3.42 26.49-6.45L26.49-6.45 22.46-16.55Q15.28-16.67 10.6-16.5L10.6-16.5 4.96-3.39Q4.44-2.27 5.33-1.51 6.23-0.76 8.84-0.24L8.84-0.24 8.74 0.2Q4.49-0.12 1.81 0L1.81 0Q1.66-0.15 1.49-0.49L1.49-0.49ZM16.75-30.69L11.25-17.94Q14.79-17.85 21.85-17.94L21.85-17.94 16.75-30.69Z" opacity="1" transform="matrix(1,0,0,1,0,0)" fill="black" class="wordmark-text-0" id="SvgjsPath1125"></path></svg></g></svg></g></svg></g></svg></g><g transform="matrix(1,0,0,1,32.88196091644203,0)"><svg viewBox="0 0 105.01835579514825 105.01835579514825" height="105.01835579514825" width="105.01835579514825"><g><svg xmlns="http://www.w3.org/2000/svg" xmlns:xlink="http://www.w3.org/1999/xlink" version="1.1" x="0" y="0" viewBox="12 12 256 256" enable-background="new 0 0 280 280" xml:space="preserve" height="105.01835579514825" width="105.01835579514825" class="icon-icon-0" data-fill-palette-color="accent" id="SvgjsSvg1124"><g fill="black"><path d="M140 12C69.42 12 12 69.422 12 140.002 12 210.58 69.42 268 140 268c70.579 0 128-57.42 128-127.998C268 69.422 210.579 12 140 12zM140 47.972c20.581 0 39.399 6.068 53.91 16.095l-9.112 8.773-1.193 1.151c-3.657-2.026-7.473-3.758-11.377-5.188-5.162-1.88-10.492-3.271-15.897-4.139-4.318-0.674-8.674-1.02-13.029-1.074-1.024-1.674-2.119-3.391-3.301-5.155-1.183 1.765-2.276 3.481-3.301 5.156-4.355 0.056-8.713 0.401-13.032 1.076-5.404 0.866-10.734 2.259-15.896 4.14-3.904 1.431-7.717 3.162-11.372 5.188L95.2 72.841l-9.109-8.775C100.6 54.039 119.417 47.972 140 47.972zM171.991 89.816c-0.119 0.615-0.188 1.358-0.203 1.95l-0.077 1.738-0.155 3.479-0.523 11.81h-62.065l-0.524-11.81-0.153-3.479-0.077-1.738c-0.017-0.592-0.084-1.334-0.203-1.95-0.494-2.545-1.479-4.819-2.845-6.92-0.349-0.521-0.725-1.028-1.15-1.512-0.466-0.537-0.87-0.884-1.291-1.299l-2.507-2.414-2.51-2.418c3.373-1.994 6.904-3.739 10.54-5.216 5.014-2.025 10.23-3.578 15.555-4.63 4.213-0.858 8.493-1.403 12.8-1.661-1.125 1.841-2.166 3.627-3.133 5.35-4.836 0.684-9.631 1.506-14.534 2.384 4.44 1.928 8.287 4.207 11.696 6.509-0.365 3.324-0.758 6.563-1.443 9.841 3.603-1.548 7.148-3.091 10.813-4.646 3.665 1.555 7.209 3.098 10.814 4.646-0.688-3.278-1.083-6.517-1.446-9.841 3.411-2.302 7.26-4.581 11.698-6.509-4.901-0.878-9.694-1.7-14.534-2.384-0.966-1.723-2.008-3.509-3.133-5.35 4.305 0.26 8.585 0.805 12.797 1.663 5.323 1.052 10.54 2.604 15.554 4.632 3.636 1.476 7.165 3.222 10.539 5.216l-2.505 2.413-2.508 2.415c-0.42 0.414-0.824 0.761-1.291 1.299-0.426 0.483-0.801 0.991-1.15 1.512C173.472 84.997 172.485 87.271 171.991 89.816zM188.979 114.388c5.446 0 9.876 4.432 9.876 9.879v60.948c0 5.447-4.43 9.878-9.876 9.878H91.019c-5.446 0-9.877-4.431-9.877-9.878v-60.948c0-5.447 4.431-9.879 9.877-9.879H188.979zM54.479 131.101c-1.662 0.873-3.214 1.931-4.595 3.165-3.853 3.401-6.404 8.104-7.01 12.975 1.321-4.731 4.433-8.731 8.331-11.26 1.043-0.685 2.143-1.256 3.273-1.731v33.9c-1.133-0.475-2.232-1.048-3.273-1.729-3.9-2.53-7.012-6.53-8.332-11.262 0.605 4.871 3.156 9.574 7.01 12.976 1.383 1.229 2.934 2.291 4.596 3.166v3.056c-10.59-3.449-18.226-12.998-18.226-24.217 0-11.218 7.636-20.766 18.226-24.216V131.101zM56.953 187.51v-72.384c0-20.409 11.274-38.679 29.044-50.994l8.307 9.561 0.882 1.015c-5.525 3.196-10.677 7.065-15.185 11.661-7.755 7.919-13.484 18.113-15.401 29.252-0.484 2.769-0.733 5.599-0.749 8.401l-0.071 8.175-0.143 16.351-0.231 32.7-0.043 8.175-0.012 2.043c0 0.681-0.017 1.346 0.012 2.126 0.057 1.523 0.253 3.007 0.592 4.479 1.184 5.188 4.191 9.899 8.328 13.233C63.265 207.153 56.953 198.043 56.953 187.51zM188.395 253.147c-0.026-0.051-0.046-0.106-0.077-0.156l-0.042-0.065c-1.981-3.145-4.632-5.925-7.538-8.15-2.924-2.238-6.143-4.005-9.493-5.356-2.023-0.817-4.096-1.464-6.194-1.986-0.167 0.384-0.383 0.768-0.642 1.15 2.086 0.702 4.121 1.532 6.069 2.524 3.086 1.57 5.967 3.507 8.476 5.802 2.432 2.242 4.46 4.775 5.985 7.657-13.922 5.469-29.075 8.487-44.938 8.487-15.862 0-31.016-3.019-44.938-8.486 1.491-2.833 3.553-5.423 5.985-7.658 2.508-2.295 5.389-4.23 8.475-5.802 1.948-0.992 3.981-1.821 6.064-2.523-0.259-0.383-0.474-0.767-0.642-1.15-2.096 0.522-4.168 1.17-6.189 1.985-3.35 1.352-6.568 3.118-9.494 5.356-2.913 2.242-5.533 4.971-7.557 8.186-0.027 0.045-0.057 0.095-0.08 0.142-0.008 0.016-0.012 0.03-0.017 0.046-4.068-1.743-8.03-3.685-11.857-5.839 6.987-8.277 19.387-13.787 33.528-13.787h1.576c0.094-0.199 0.2-0.392 0.327-0.575-0.469-0.871-0.707-1.742-0.71-2.605 0-0.862 0.245-1.651 0.71-2.324-0.471-0.871-0.707-1.742-0.71-2.606 0-0.861 0.246-1.649 0.71-2.322-0.469-0.871-0.707-1.743-0.71-2.605 0-0.863 0.246-1.652 0.71-2.324-0.274-0.511-0.46-1.021-0.575-1.529l2.622 0.005c0.126 0.378 0.322 0.713 0.521 0.999 0.741 0.989 1.673 1.708 2.629 2.359 1.931 1.28 4.038 2.215 6.192 2.964 2.162 0.738 4.395 1.241 6.641 1.572 2.249 0.329 4.524 0.457 6.787 0.374 2.262 0.083 4.537-0.046 6.786-0.375 2.249-0.332 4.479-0.835 6.642-1.573 2.156-0.749 4.262-1.684 6.192-2.966 0.956-0.65 1.89-1.369 2.628-2.358 0.2-0.284 0.396-0.62 0.521-0.994l2.624-0.005c-0.114 0.508-0.3 1.018-0.576 1.529 0.466 0.67 0.71 1.459 0.71 2.322 0 0.861-0.238 1.734-0.71 2.607 0.466 0.672 0.71 1.459 0.71 2.32 0 0.863-0.238 1.735-0.71 2.608 0.466 0.673 0.71 1.461 0.71 2.322s-0.237 1.733-0.709 2.606c0.128 0.184 0.233 0.376 0.327 0.574h1.576c14.144 0 26.544 5.51 33.528 13.787C196.422 249.464 192.461 251.405 188.395 253.147zM151.116 219.135c-3.614 1.024-7.363 1.552-11.119 1.498-3.753 0.051-7.504-0.475-11.116-1.5-2.161-0.632-4.317-1.427-6.3-2.489l0.613 0.002c1.1 0.527 2.229 0.984 3.377 1.382 2.162 0.739 4.394 1.241 6.641 1.572 2.249 0.33 4.524 0.457 6.787 0.374 2.262 0.083 4.537-0.044 6.786-0.375s4.479-0.835 6.642-1.573c1.144-0.397 2.271-0.853 3.369-1.379l0.62-0.001C155.434 217.707 153.276 218.503 151.116 219.135zM159.368 217.231c0.337-0.01 0.768 0.124 0.602 0.35-1.443 1.942-9.746 4.964-12.1 4.403-0.271-0.064-0.03-0.444 0.236-0.653L159.368 217.231zM131.894 221.331c0.263 0.209 0.504 0.589 0.234 0.653-2.354 0.561-10.656-2.461-12.098-4.403-0.168-0.226 0.262-0.359 0.599-0.35L131.894 221.331zM203.4 208.672c-2.036 1.327-4.313 2.271-6.687 2.76-1.185 0.243-2.397 0.371-3.605 0.386l-4.057-0.004-16.351-0.028-81.75 0.031-4.055 0.004c-1.214-0.015-2.423-0.144-3.61-0.386-2.37-0.489-4.654-1.423-6.689-2.755-4.082-2.651-7.124-6.899-8.256-11.646-0.288-1.18-0.462-2.408-0.519-3.606-0.03-0.581-0.024-1.279-0.029-1.963l-0.011-2.043-0.043-8.175-0.232-32.7-0.143-16.351-0.071-8.175c-0.025-2.647 0.141-5.27 0.528-7.88 1.528-10.46 6.688-20.271 13.954-28.093 4.252-4.646 9.21-8.634 14.6-11.973l2.495 2.873 2.284 2.628c0.37 0.434 0.802 0.895 1.056 1.267 0.308 0.417 0.584 0.87 0.84 1.338 1.007 1.878 1.697 4.025 1.896 6.066 0.049 0.533 0.049 0.95 0.018 1.519l-0.076 1.738-0.154 3.479-0.525 11.81H91.019c-8.51 0-15.473 6.962-15.473 15.474v60.948c0 8.51 6.963 15.473 15.473 15.473h97.961c8.513 0 15.474-6.963 15.474-15.473v-60.948c0-8.512-6.961-15.474-15.474-15.474H175.79l-0.523-11.81-0.154-3.479-0.078-1.738c-0.031-0.568-0.029-0.985 0.02-1.519 0.198-2.041 0.891-4.188 1.896-6.066 0.256-0.469 0.533-0.922 0.838-1.339 0.256-0.372 0.687-0.833 1.056-1.267l2.285-2.627 2.492-2.868c5.388 3.337 10.346 7.325 14.597 11.972 7.268 7.817 12.426 17.63 13.953 28.088 0.188 1.304 0.342 2.611 0.417 3.926 0.055 0.661 0.071 1.303 0.097 1.949l0.018 2.003-0.072 8.175-0.143 16.351-0.23 32.7-0.044 8.176-0.01 2.043c-0.007 0.692 0 1.367-0.03 1.951-0.057 1.22-0.231 2.432-0.518 3.616C210.522 201.774 207.482 206.022 203.4 208.672zM223.047 187.51c0 10.52-6.298 19.619-15.296 23.777 4.123-3.335 7.121-8.04 8.302-13.218 0.339-1.468 0.537-2.968 0.591-4.47 0.029-0.778 0.012-1.468 0.012-2.137l-0.01-2.043-0.043-8.176-0.231-32.7-0.145-16.351-0.07-8.175-0.055-2.083c-0.04-0.716-0.072-1.436-0.142-2.132-0.119-1.404-0.318-2.801-0.552-4.188-0.965-5.551-2.872-10.909-5.511-15.84-2.654-4.925-6.016-9.438-9.896-13.413-4.507-4.595-9.658-8.463-15.183-11.658l0.878-1.012 8.307-9.56c17.769 12.315 29.044 30.585 29.044 50.993V187.51zM225.521 174.356V171.3c1.661-0.875 3.21-1.937 4.591-3.165 3.854-3.401 6.406-8.104 7.01-12.976-1.319 4.731-4.431 8.731-8.329 11.261-1.041 0.681-2.141 1.254-3.271 1.729v-33.9c1.129 0.476 2.229 1.047 3.27 1.73 3.9 2.529 7.01 6.528 8.331 11.261-0.604-4.87-3.156-9.574-7.01-12.975-1.379-1.234-2.93-2.292-4.591-3.165v-5.176c10.587 3.451 18.223 12.998 18.223 24.215C243.743 161.357 236.107 170.905 225.521 174.356z" fill="black"></path><path d="M161.602 233.817l-0.3-0.154-0.27 0.235c-2.764 2.426-6.34 3.907-9.918 4.953-3.612 1.025-7.361 1.553-11.117 1.5-3.753 0.05-7.504-0.476-11.116-1.501-3.576-1.047-7.152-2.526-9.916-4.954l-0.267-0.235-0.306 0.154c-0.547 0.275-1.214 0.827-1.284 1.649-0.068 0.776 0.299 1.395 0.643 1.887 0.74 0.989 1.672 1.707 2.628 2.358 1.931 1.281 4.038 2.216 6.192 2.964 2.162 0.739 4.395 1.241 6.641 1.572 2.249 0.33 4.524 0.457 6.787 0.374 2.262 0.083 4.537-0.044 6.786-0.375 2.247-0.33 4.479-0.835 6.64-1.573 2.156-0.748 4.264-1.683 6.194-2.964 0.956-0.651 1.89-1.37 2.628-2.359 0.346-0.49 0.707-1.115 0.643-1.873C162.812 234.628 162.15 234.1 161.602 233.817zM132.128 241.702c-2.354 0.561-10.658-2.463-12.098-4.404-0.168-0.223 0.262-0.358 0.599-0.35l11.265 4.1C132.154 241.257 132.396 241.637 132.128 241.702zM159.97 237.298c-1.443 1.941-9.746 4.965-12.098 4.404-0.271-0.065-0.029-0.445 0.234-0.654l11.266-4.1C159.706 236.939 160.136 237.075 159.97 237.298z" fill="black"></path><path d="M161.601 228.887l-0.301-0.153-0.268 0.236c-2.764 2.427-6.34 3.907-9.916 4.953-3.614 1.024-7.363 1.551-11.119 1.499-3.753 0.049-7.504-0.476-11.116-1.5-3.576-1.047-7.153-2.526-9.916-4.954l-0.267-0.235-0.305 0.152c-0.548 0.276-1.215 0.828-1.285 1.65-0.068 0.777 0.299 1.395 0.642 1.887 0.741 0.989 1.673 1.707 2.629 2.359 1.931 1.281 4.037 2.215 6.192 2.964 2.162 0.738 4.394 1.242 6.641 1.573 2.249 0.33 4.524 0.456 6.787 0.373 2.262 0.083 4.537-0.044 6.786-0.375s4.479-0.835 6.642-1.573c2.156-0.749 4.262-1.684 6.192-2.965 0.956-0.652 1.89-1.371 2.628-2.36 0.346-0.489 0.707-1.117 0.643-1.872C162.814 229.695 162.148 229.169 161.601 228.887zM132.128 236.774c-2.354 0.563-10.652-2.464-12.098-4.404-0.168-0.224 0.262-0.358 0.599-0.35l11.263 4.101C132.156 236.331 132.396 236.71 132.128 236.774zM159.97 232.37c-1.447 1.94-9.749 4.967-12.1 4.404-0.27-0.064-0.03-0.443 0.236-0.653l11.262-4.101C159.706 232.012 160.136 232.146 159.97 232.37z" fill="black"></path><path d="M161.602 223.958l-0.3-0.155-0.27 0.237c-2.764 2.427-6.34 3.907-9.916 4.953-3.614 1.023-7.363 1.551-11.119 1.498-3.753 0.049-7.504-0.475-11.116-1.499-3.576-1.047-7.153-2.526-9.916-4.954l-0.267-0.235-0.306 0.154c-0.547 0.275-1.214 0.826-1.284 1.649-0.068 0.776 0.299 1.395 0.642 1.887 0.741 0.988 1.673 1.707 2.629 2.358 1.931 1.281 4.038 2.216 6.192 2.964 2.162 0.738 4.394 1.241 6.641 1.572 2.249 0.329 4.524 0.457 6.787 0.375 2.262 0.082 4.537-0.046 6.786-0.375 2.247-0.332 4.479-0.837 6.642-1.574 2.156-0.748 4.262-1.683 6.192-2.965 0.956-0.65 1.89-1.37 2.628-2.358 0.346-0.491 0.707-1.116 0.643-1.874C162.812 224.769 162.15 224.241 161.602 223.958zM132.128 231.842c-2.355 0.563-10.656-2.46-12.098-4.402-0.168-0.225 0.262-0.358 0.599-0.351l11.263 4.101C132.154 231.399 132.396 231.778 132.128 231.842zM159.97 227.439c-1.443 1.942-9.745 4.965-12.1 4.402-0.27-0.063-0.027-0.442 0.236-0.652l11.266-4.101C159.706 227.081 160.136 227.215 159.97 227.439z" fill="black"></path><path d="M161.601 219.03l-0.301-0.153-0.268 0.235c-2.765 2.425-6.34 3.906-9.918 4.952-3.612 1.024-7.361 1.551-11.117 1.498-3.753 0.05-7.504-0.474-11.116-1.5-3.576-1.046-7.152-2.526-9.916-4.952l-0.266-0.234-0.304 0.152c-0.551 0.273-1.218 0.827-1.287 1.649-0.068 0.776 0.299 1.395 0.643 1.887 0.74 0.989 1.672 1.707 2.628 2.358 1.932 1.28 4.038 2.215 6.192 2.963 2.162 0.738 4.395 1.241 6.641 1.572 2.249 0.329 4.524 0.457 6.787 0.374 2.262 0.082 4.537-0.045 6.786-0.375 2.247-0.331 4.479-0.835 6.64-1.572 2.156-0.749 4.264-1.684 6.194-2.965 0.956-0.65 1.888-1.369 2.628-2.358 0.344-0.49 0.707-1.115 0.643-1.874C162.813 219.842 162.15 219.311 161.601 219.03zM132.128 226.914c-2.354 0.562-10.656-2.462-12.098-4.402-0.168-0.223 0.26-0.358 0.599-0.349l11.263 4.099C132.156 226.472 132.396 226.852 132.128 226.914zM159.97 222.512c-1.443 1.94-9.746 4.964-12.098 4.402-0.271-0.063-0.032-0.442 0.234-0.652l11.262-4.099C159.706 222.153 160.136 222.289 159.97 222.512z" fill="black"></path><path d="M84.232 124.267v60.948c0 3.742 3.044 6.786 6.786 6.786h97.961c3.741 0 6.784-3.044 6.784-6.786v-60.948c0-3.742-3.043-6.787-6.784-6.787H91.019C87.276 117.479 84.232 120.524 84.232 124.267zM171.243 144.323c8.058 0 14.59 6.53 14.59 14.586s-6.532 14.587-14.59 14.587c-8.059 0-14.588-6.531-14.588-14.587S163.185 144.323 171.243 144.323zM108.756 144.323c8.054 0 14.586 6.53 14.586 14.586s-6.532 14.587-14.586 14.587c-8.057 0-14.588-6.531-14.588-14.587S100.699 144.323 108.756 144.323z" fill="black"></path></g></svg></g></svg></g><g></g></svg></g></svg></g></svg></g><defs><mask></mask></defs></svg><rect width="320" height="360" fill="black" stroke="none" visibility="hidden"></rect></g></mask></svg><rect width="320" height="360" fill="black" stroke="none" visibility="hidden"></rect></g></mask></svg><rect width="320" height="360" fill="black" stroke="none" visibility="hidden"></rect></g></mask><linearGradient x1="0.054" x2="0.941" y1="0.5" y2="0.5" id="151db747-6a20-4638-bd83-b29ca9b9eda9"><stop stop-color="#9c7945" offset="0"></stop><stop stop-color="#faf3aa" offset="0.498"></stop><stop stop-color="#9c7945" offset="1"></stop></linearGradient></svg><rect width="320" height="360" fill="none" stroke="none" visibility="hidden"></rect></g></svg></g></svg>